<?xml version="1.0" standalone="no"?>
<!DOCTYPE svg PUBLIC "-//W3C//DTD SVG 20010904//EN"
 "http://www.w3.org/TR/2001/REC-SVG-20010904/DTD/svg10.dtd">
<svg version="1.0" xmlns="http://www.w3.org/2000/svg"
 width="983.000000pt" height="983.000000pt" viewBox="0 0 983.000000 983.000000"
 preserveAspectRatio="xMidYMid meet">
<metadata>
Created by potrace 1.11, written by Peter Selinger 2001-2013
</metadata>
<g transform="translate(0.000000,983.000000) scale(0.100000,-0.100000)"
fill="#000000" stroke="none">
<path d="M4678 9825 c-2 -2 -46 -6 -98 -9 -52 -4 -108 -9 -125 -11 -16 -2 -57
-7 -90 -10 -49 -5 -167 -23 -270 -41 -11 -2 -36 -6 -55 -9 -19 -4 -53 -11 -75
-17 -22 -5 -51 -12 -65 -14 -109 -19 -573 -164 -685 -214 -22 -10 -69 -30
-105 -45 -98 -41 -367 -176 -477 -241 -164 -95 -433 -280 -548 -375 -241 -200
-426 -379 -610 -590 -107 -122 -335 -428 -335 -448 0 -5 -3 -11 -8 -13 -13 -6
-105 -152 -158 -253 -15 -27 -30 -52 -33 -55 -12 -9 -201 -399 -201 -415 0 -2
-12 -30 -27 -62 -31 -66 -28 -58 -38 -101 -4 -18 -12 -35 -16 -38 -5 -3 -9
-14 -9 -25 0 -13 -4 -18 -12 -13 -6 4 -8 3 -5 -3 4 -6 -3 -43 -16 -82 -16 -51
-26 -70 -36 -66 -11 5 -12 3 -1 -10 10 -12 10 -18 0 -30 -7 -8 -10 -15 -7 -15
2 0 -6 -37 -20 -82 -29 -98 -31 -105 -45 -180 -6 -31 -14 -56 -17 -54 -3 2 -7
-14 -8 -37 -2 -22 -6 -43 -10 -46 -5 -3 -8 -15 -8 -26 1 -11 -4 -23 -10 -27
-6 -5 -5 -8 3 -8 9 0 10 -5 3 -19 -6 -10 -12 -37 -13 -60 -2 -22 -6 -41 -9
-41 -3 0 -6 -8 -6 -17 1 -51 -4 -84 -10 -80 -5 3 -9 -16 -9 -41 -3 -91 -7
-111 -18 -105 -8 5 -8 2 0 -8 6 -8 9 -23 7 -34 -3 -11 -5 -36 -5 -55 0 -19 -5
-38 -12 -42 -7 -5 -7 -8 -1 -8 14 0 6 -73 -9 -82 -8 -6 -8 -8 1 -8 12 0 11
-69 -2 -89 -3 -6 -2 -11 4 -11 7 0 7 -8 1 -25 -6 -15 -6 -26 1 -30 5 -4 6 -11
2 -18 -8 -12 -11 -217 -3 -217 8 0 5 -124 -3 -137 -5 -7 -4 -13 1 -13 6 0 12
-16 14 -35 2 -20 0 -35 -7 -35 -6 0 -7 -3 0 -8 6 -4 10 -23 10 -42 -1 -19 3
-40 7 -47 5 -6 4 -14 -3 -18 -8 -6 -7 -10 2 -16 12 -8 11 -11 -1 -19 -8 -5
-10 -10 -4 -10 7 0 14 -13 16 -29 3 -20 1 -28 -6 -24 -6 4 -5 0 2 -9 7 -8 14
-40 16 -69 2 -30 7 -62 11 -72 4 -10 1 -24 -6 -34 -9 -11 -10 -14 -2 -10 8 5
14 0 17 -15 5 -25 18 -94 21 -118 6 -38 15 -73 19 -78 3 -3 0 -12 -7 -20 -9
-13 -9 -14 1 -8 11 7 17 -16 13 -51 -1 -7 3 -13 10 -13 8 0 7 -5 -2 -17 -10
-11 -10 -14 -1 -9 8 5 12 0 12 -14 0 -11 5 -29 12 -39 9 -15 9 -23 -1 -35 -7
-9 -18 -13 -24 -9 -6 3 -7 1 -3 -6 6 -9 11 -9 22 0 8 6 16 10 18 8 6 -8 39
-144 40 -166 1 -12 3 -19 5 -17 5 4 78 -199 88 -245 4 -16 2 -22 -5 -17 -6 3
-13 2 -17 -3 -3 -6 3 -8 15 -6 11 2 22 0 25 -6 4 -5 0 -9 -7 -9 -8 0 -6 -5 4
-11 10 -5 18 -15 18 -22 0 -7 7 -25 15 -40 8 -15 10 -25 5 -22 -6 4 -10 2 -10
-2 0 -5 9 -14 19 -20 12 -8 18 -21 17 -37 -2 -14 0 -23 4 -21 14 8 19 -22 7
-35 -8 -9 -9 -11 -1 -7 14 8 31 -10 36 -38 1 -11 7 -23 13 -27 5 -4 10 -11 10
-15 0 -17 28 -73 36 -73 5 0 9 -7 9 -15 0 -8 16 -43 35 -78 37 -68 42 -83 23
-71 -7 4 -8 3 -4 -4 4 -7 14 -12 23 -12 10 0 14 -6 10 -20 -3 -11 -1 -18 3
-15 4 3 17 -11 28 -29 15 -25 17 -36 9 -40 -7 -2 -4 -5 6 -5 9 -1 17 -8 17
-16 0 -8 5 -15 11 -15 8 0 9 -4 0 -13 -11 -14 -5 -27 13 -27 6 0 4 5 -4 10
-10 7 -11 10 -2 10 19 0 26 -28 11 -48 -11 -14 -11 -15 1 -5 11 10 17 9 32 -4
23 -21 23 -34 0 -27 -13 4 -12 2 3 -7 21 -13 35 -29 35 -42 0 -5 -6 -5 -12 -1
-9 5 -9 2 1 -9 15 -18 26 -23 16 -7 -3 5 -1 10 4 10 6 0 11 -5 11 -11 0 -6 10
-24 23 -40 66 -85 66 -86 54 -98 -9 -10 -8 -11 4 -6 10 4 22 -3 32 -19 16 -23
16 -26 -1 -35 -15 -9 -14 -10 7 -8 14 1 28 -5 35 -17 6 -10 20 -28 31 -40 48
-53 64 -76 55 -81 -6 -4 -14 4 -19 17 -8 18 -10 19 -10 5 -1 -11 -5 -15 -13
-11 -7 4 -8 3 -4 -5 4 -6 12 -9 17 -6 5 4 12 -1 15 -10 5 -13 9 -14 15 -4 6
10 14 8 33 -10 14 -13 23 -28 20 -32 -2 -4 5 -13 16 -19 16 -8 19 -17 14 -33
-6 -19 -5 -20 9 -9 14 12 17 10 23 -12 3 -14 9 -24 14 -21 4 2 17 -7 28 -20
12 -14 20 -26 17 -26 -3 -1 -9 -2 -14 -3 -5 0 -13 -5 -18 -10 -4 -5 -3 -6 3
-3 7 4 15 0 18 -9 5 -12 1 -14 -17 -10 -12 3 -16 3 -9 0 6 -3 9 -10 6 -16 -4
-6 2 -6 14 1 13 7 19 17 16 26 -4 8 -1 15 4 15 6 0 14 -10 17 -21 6 -17 9 -19
16 -8 7 11 9 11 9 -3 0 -9 12 -26 26 -37 15 -12 23 -21 18 -21 -5 0 3 -8 17
-18 14 -9 24 -23 22 -30 -3 -8 1 -10 13 -5 12 4 15 3 10 -5 -4 -7 -2 -12 3
-12 6 0 43 -32 82 -70 39 -39 75 -70 79 -70 9 0 30 -32 30 -46 0 -3 -7 -1 -15
6 -13 11 -14 10 -9 -4 7 -19 16 -20 30 -6 8 8 15 6 23 -4 13 -16 7 -36 -11
-36 -7 0 -6 6 2 15 9 10 9 15 1 15 -6 0 -11 -5 -11 -11 0 -5 -6 -7 -12 -3 -7
4 -5 -1 4 -12 14 -14 21 -15 30 -6 7 7 19 12 28 12 13 -1 13 -2 -1 -13 -14
-10 -15 -16 -4 -30 6 -9 15 -13 20 -9 4 4 4 -4 1 -18 -6 -22 -6 -23 5 -6 10
16 9 21 -5 31 -20 15 -21 25 -2 25 8 0 18 -9 21 -20 3 -11 13 -20 21 -20 8 0
13 -4 10 -9 -3 -5 1 -12 10 -15 10 -4 13 -2 8 6 -4 6 4 3 18 -8 14 -10 24 -22
22 -26 -2 -4 4 -9 15 -13 30 -9 57 -38 65 -69 6 -26 5 -28 -8 -17 -8 7 -14 18
-13 23 1 6 -5 13 -13 15 -9 3 -11 1 -5 -4 6 -4 11 -15 13 -23 2 -8 7 -16 12
-18 5 -2 7 -11 4 -20 -5 -15 -4 -15 6 0 9 15 14 16 33 5 12 -6 26 -16 30 -22
8 -10 6 1 -10 43 -4 12 0 10 15 -6 11 -13 18 -31 15 -40 -4 -14 -3 -15 5 -2 6
8 8 19 5 25 -2 5 5 -1 16 -15 11 -14 21 -21 21 -17 0 5 7 2 15 -7 8 -8 12 -21
9 -29 -7 -21 12 -30 33 -17 16 9 15 10 -4 5 -14 -4 -23 -2 -23 4 0 16 36 13
49 -3 10 -11 8 -16 -8 -21 -21 -6 -29 -25 -11 -25 6 0 10 4 10 9 0 22 39 15
83 -16 26 -18 51 -33 55 -33 5 0 17 -9 27 -20 9 -10 20 -18 24 -17 3 1 17 -6
31 -16 l25 -18 -28 -25 c-15 -13 -25 -24 -21 -24 4 0 16 7 26 17 17 15 18 15
18 0 0 -10 5 -17 10 -17 7 0 7 6 1 19 -6 10 -7 21 -4 25 11 11 31 -38 20 -52
-5 -7 -8 -15 -5 -18 3 -2 13 7 23 22 9 15 13 24 7 20 -5 -3 -13 1 -16 9 -4 13
-2 14 14 5 22 -12 25 -21 10 -36 -7 -7 -2 -15 15 -24 19 -10 28 -11 37 -2 8 8
6 10 -9 6 -23 -6 -38 10 -27 28 5 8 11 6 20 -6 7 -10 16 -17 21 -17 4 1 8 -3
8 -8 0 -5 3 -13 8 -17 4 -4 7 -15 7 -25 0 -20 46 -56 57 -45 3 3 1 6 -5 6 -17
0 -44 31 -38 45 3 8 -2 16 -10 19 -9 3 -12 11 -8 17 5 8 10 6 16 -5 5 -9 14
-14 19 -10 6 3 8 -4 6 -18 -2 -12 -2 -17 0 -11 8 22 80 -1 88 -28 4 -10 11
-19 16 -19 6 0 7 5 4 10 -4 6 14 0 39 -12 25 -12 46 -26 46 -30 0 -4 9 -8 19
-8 27 0 51 -10 51 -22 0 -6 -6 -5 -15 2 -15 13 -35 6 -35 -13 0 -7 4 -6 10 3
5 8 13 11 17 6 4 -4 -3 -16 -16 -27 -13 -11 -21 -22 -18 -25 2 -3 17 7 31 21
15 14 31 23 38 19 7 -5 8 -3 3 5 -5 9 2 8 21 -2 58 -30 115 -53 134 -56 22 -3
8 -32 -27 -56 -21 -14 -32 -25 -26 -25 7 0 15 4 18 10 12 20 26 10 15 -11 -7
-11 -9 -23 -7 -26 3 -2 8 5 12 16 4 13 11 18 18 14 8 -5 8 -2 -1 9 -10 12 -10
18 2 28 9 6 21 8 28 4 8 -5 8 -1 -2 11 -14 17 -13 18 3 12 10 -4 21 -7 23 -7
3 0 2 -5 -1 -11 -4 -6 -1 -10 6 -8 33 4 50 -1 43 -13 -6 -10 -4 -10 8 0 13 10
17 10 22 -3 4 -11 2 -14 -6 -9 -7 5 -8 3 -3 -6 6 -10 4 -12 -8 -7 -10 3 -17 2
-17 -3 0 -6 6 -10 14 -10 8 0 21 -9 30 -21 l14 -21 23 23 c13 13 16 20 7 17
-9 -4 -21 -1 -27 5 -16 16 -14 32 2 18 8 -6 16 -8 20 -5 3 3 16 0 29 -7 12 -7
26 -12 31 -11 4 1 7 -2 7 -8 0 -13 -17 -13 -25 0 -4 7 -14 2 -26 -11 -25 -29
-24 -37 0 -15 11 10 25 15 32 10 7 -4 18 1 26 11 8 13 13 14 13 5 0 -7 3 -10
6 -7 4 3 15 2 26 -4 11 -6 29 -13 41 -15 38 -9 52 -12 55 -14 1 -2 8 -3 15 -4
6 0 12 -14 12 -30 1 -16 6 -31 13 -34 7 -2 10 -8 6 -13 -3 -5 -1 -9 3 -9 5 0
14 9 21 20 7 11 18 20 24 20 9 0 9 -3 1 -11 -6 -6 -9 -18 -6 -27 4 -10 2 -13
-5 -8 -7 4 -12 2 -12 -4 0 -7 6 -10 13 -7 6 2 12 11 12 19 0 8 6 22 13 31 12
14 10 15 -18 12 -21 -3 -28 -1 -24 7 4 7 3 8 -4 4 -6 -4 -8 -14 -5 -24 5 -16
5 -16 -12 0 -24 23 -14 32 32 30 42 -2 59 -14 47 -34 -13 -20 -14 -38 -2 -38
6 0 7 7 4 15 -3 9 1 18 9 21 8 4 13 9 10 14 -2 4 7 5 20 2 17 -3 25 -11 25
-25 0 -19 1 -19 13 -4 12 17 57 14 57 -5 0 -5 -5 -6 -12 -2 -6 4 -8 3 -5 -3 3
-5 -3 -17 -15 -27 -23 -20 -12 -41 18 -33 15 4 14 5 -5 6 -20 1 -22 3 -11 16
11 13 15 13 23 3 6 -10 7 -9 4 4 -4 12 0 16 14 15 10 -1 19 -5 19 -10 0 -4 5
-5 11 -1 8 4 7 9 -2 15 -7 4 -17 5 -21 3 -4 -3 -8 2 -8 12 0 13 3 14 13 5 8
-6 17 -8 20 -4 4 3 7 1 7 -5 0 -7 5 -12 11 -12 5 0 7 5 3 11 -3 6 8 3 25 -5
23 -13 31 -13 31 -4 0 9 3 9 8 3 4 -6 18 -12 31 -12 13 -1 29 -7 34 -12 12
-12 -44 -8 -64 5 -8 4 -9 3 -5 -4 10 -17 -4 -15 -23 2 -14 13 -16 12 -17 -12
-1 -15 1 -21 3 -14 3 6 9 12 15 12 6 0 7 -8 4 -17 -6 -15 -4 -15 14 2 19 18
21 18 42 -1 19 -15 20 -16 9 -1 -7 9 -9 17 -3 17 15 0 33 -26 24 -35 -4 -5 -2
-5 4 -2 7 4 15 0 18 -9 10 -26 7 -27 -20 -9 -15 9 -24 12 -20 7 3 -6 0 -12 -6
-15 -7 -3 -4 -5 7 -5 11 1 27 -1 35 -3 9 -3 15 3 15 14 0 10 8 23 18 28 11 7
17 7 17 -1 0 -5 -4 -10 -10 -10 -5 0 -10 -5 -10 -11 0 -5 5 -7 12 -3 8 5 9 2
5 -9 -3 -10 -2 -17 3 -17 5 0 8 18 7 40 -1 26 -5 36 -11 30 -12 -12 -29 -13
-22 -2 3 5 -1 9 -9 9 -11 0 -12 -4 -4 -14 8 -9 8 -13 1 -13 -6 0 -13 4 -16 9
-9 14 5 42 17 34 11 -7 52 -14 79 -14 19 0 42 -32 31 -43 -11 -11 -21 -6 -19
10 0 9 -6 18 -14 19 -10 2 -16 -6 -17 -23 0 -15 2 -20 7 -13 5 9 13 5 28 -13
16 -21 21 -23 26 -10 4 9 2 13 -5 8 -7 -4 -10 -1 -7 7 3 8 12 13 21 11 8 -1
18 2 22 8 4 6 -1 7 -11 3 -13 -5 -15 -3 -9 7 6 9 4 11 -6 5 -11 -6 -11 -5 -3
4 8 9 18 10 30 4 11 -5 36 -8 57 -8 20 1 37 -1 37 -4 0 -6 57 -12 127 -15 17
0 35 -4 39 -8 4 -4 13 -3 21 3 16 14 17 -3 1 -19 -15 -15 -29 -16 -26 -1 2 6
-4 14 -12 16 -10 3 -11 2 -3 -4 8 -6 6 -14 -7 -31 -23 -28 -34 -29 -19 -1 8
16 8 24 -1 33 -8 8 -9 6 -4 -9 7 -18 6 -19 -12 -5 -20 16 -63 21 -64 8 0 -24
1 -28 11 -28 8 0 8 5 -1 15 -8 9 -9 15 -2 15 6 0 18 -10 27 -22 l17 -23 -8 25
c-6 22 -5 23 9 12 9 -8 14 -19 11 -27 -10 -24 18 -29 36 -6 14 20 18 21 29 7
11 -13 9 -21 -9 -48 -17 -26 -18 -28 -2 -11 15 17 22 19 32 10 10 -9 11 -9 5
3 -5 8 -10 25 -11 38 -2 20 0 21 12 11 8 -7 13 -18 10 -26 -3 -8 1 -16 9 -19
8 -4 12 -10 9 -15 -3 -5 3 -6 12 -2 12 4 14 8 6 11 -9 3 -10 8 -2 17 6 7 7 20
4 29 -5 13 -9 14 -20 5 -10 -8 -14 -8 -14 -1 0 6 8 16 18 21 9 6 12 11 5 11
-6 0 -15 -4 -18 -10 -3 -5 -11 -10 -17 -10 -7 0 -6 5 1 14 18 21 80 15 93 -8
9 -16 8 -18 -6 -13 -10 4 -20 7 -22 7 -3 0 -2 5 2 12 4 7 3 8 -4 4 -6 -4 -9
-13 -6 -21 4 -8 10 -12 15 -9 5 3 9 1 9 -5 0 -5 -4 -13 -10 -16 -6 -3 -10 -12
-10 -18 0 -7 5 -5 10 5 6 9 18 15 27 14 10 -2 12 -1 5 1 -7 3 -10 9 -7 14 4 5
14 5 26 -2 16 -8 18 -13 8 -25 -7 -8 -7 -14 -1 -14 5 0 13 7 16 16 5 13 9 14
21 4 8 -6 18 -9 24 -6 5 3 12 0 14 -6 4 -9 6 -9 6 -1 1 6 -6 18 -14 27 -17 17
-20 30 -5 21 6 -3 10 -1 10 4 0 6 -4 11 -9 11 -17 0 -23 -20 -11 -35 8 -10 9
-15 2 -15 -6 0 -14 5 -17 10 -4 6 -10 8 -13 6 -11 -6 -58 31 -50 40 4 3 14 -1
23 -10 19 -18 35 -21 35 -5 0 5 -4 8 -9 4 -5 -3 -12 -1 -16 4 -3 6 12 9 37 8
30 -1 43 -6 44 -17 3 -39 4 -41 26 -34 20 6 21 5 9 -10 -7 -9 -10 -16 -6 -16
4 0 15 10 25 22 l19 23 28 -30 c15 -16 27 -34 25 -40 -2 -5 0 -6 5 -2 4 5 8
12 8 15 1 16 27 52 37 52 7 0 6 -5 -2 -15 -9 -10 -9 -15 -1 -15 6 0 11 5 11
11 0 5 6 7 13 3 8 -5 8 -2 -2 9 -7 9 -9 17 -3 17 5 0 15 -6 21 -14 10 -11 7
-17 -10 -29 -12 -9 -29 -13 -38 -10 -9 4 -13 3 -9 -1 13 -15 44 -12 56 6 9 13
21 17 35 13 12 -4 18 -3 12 2 -14 11 -17 33 -5 33 6 0 16 -11 22 -25 6 -14 15
-25 19 -25 4 0 10 -8 12 -17 4 -16 5 -16 6 -1 0 9 -6 24 -15 33 -9 9 -13 19
-9 23 4 4 15 -3 25 -16 10 -12 23 -22 30 -22 6 0 -2 11 -17 25 -24 22 -25 25
-8 23 11 -2 23 -10 27 -18 4 -8 6 -1 4 17 -4 29 -2 31 22 29 15 -1 35 1 44 6
10 5 19 4 23 -2 4 -6 10 -8 15 -5 6 3 36 8 67 10 32 2 58 4 58 5 0 3 57 9 120
13 22 1 45 6 51 10 7 4 15 -1 19 -10 3 -10 1 -19 -4 -21 -6 -2 -11 -8 -11 -13
0 -6 5 -7 10 -4 6 3 10 1 10 -4 0 -6 -3 -11 -7 -11 -5 -1 -20 -11 -35 -23 -21
-17 -25 -26 -17 -37 9 -13 10 -13 6 0 -2 8 10 25 27 38 23 17 31 31 31 55 0
24 5 33 20 34 11 1 36 5 55 8 80 12 90 13 90 8 0 -8 -33 -32 -44 -33 -5 0 -3
7 4 15 11 13 10 14 -2 10 -9 -4 -15 -19 -15 -38 -1 -26 1 -28 7 -12 8 19 10
17 14 -12 0 -7 5 -12 10 -12 5 0 13 -5 18 -13 8 -10 9 -10 5 2 -2 8 -10 14
-16 12 -6 -1 -11 2 -11 7 0 14 18 23 24 12 3 -4 17 -9 32 -9 17 0 22 3 13 8
-6 5 -19 6 -28 2 -13 -4 -12 -1 3 16 23 26 37 29 30 5 -4 -12 0 -10 14 6 13
17 21 20 27 12 4 -7 13 -10 21 -7 7 3 16 1 19 -4 4 -6 -2 -10 -11 -10 -10 0
-15 -3 -11 -6 3 -4 14 -4 23 0 13 5 14 9 5 20 -7 8 -14 23 -16 35 -3 17 1 21
21 21 13 0 24 4 24 9 0 5 8 8 18 6 9 -1 22 1 27 5 13 9 55 11 56 2 0 -4 2 -15
4 -25 2 -11 -1 -16 -8 -14 -7 2 -11 13 -9 23 3 16 1 16 -13 -3 -9 -13 -21 -23
-27 -23 -6 0 -3 9 7 20 17 18 17 20 2 14 -17 -6 -21 -17 -17 -43 1 -13 -1 -13
-14 -2 -9 8 -16 9 -16 3 0 -19 28 -20 46 -1 17 19 18 19 50 -6 18 -14 36 -25
41 -25 4 0 -3 7 -15 16 l-23 16 21 15 c16 12 24 12 35 3 12 -10 22 -9 48 4 17
8 26 16 19 16 -7 0 -21 -6 -32 -12 -27 -17 -50 3 -30 27 7 8 17 15 22 15 6 0
5 -7 -2 -15 -7 -9 -10 -18 -7 -22 4 -3 9 2 13 11 3 9 11 13 18 10 6 -4 3 1 -6
11 -17 18 -18 18 -37 1 -11 -10 -24 -15 -29 -12 -5 3 -9 -2 -8 -11 0 -9 -3
-17 -9 -19 -5 -2 -11 7 -11 21 -2 19 3 25 15 23 9 -1 26 4 39 10 12 7 26 11
30 8 5 -3 21 1 36 9 25 13 27 13 21 -4 -3 -11 -1 -22 4 -26 7 -4 8 1 4 12 -6
16 -5 16 10 5 8 -8 14 -19 11 -27 -3 -7 0 -16 6 -20 6 -4 11 -1 9 6 -3 26 1
39 12 39 6 0 8 -9 4 -22 -5 -20 -4 -21 5 -5 14 22 4 39 -20 32 -15 -5 -17 -2
-13 15 5 17 8 18 21 8 9 -8 13 -8 9 -2 -4 7 2 14 13 17 11 3 23 1 26 -4 3 -5
0 -8 -8 -7 -8 2 -12 -5 -10 -17 2 -11 3 -29 3 -40 0 -19 1 -19 11 -2 7 14 7
22 -1 30 -28 28 -7 25 32 -4 52 -40 73 -52 35 -20 -26 22 -27 25 -11 37 17 12
16 13 -4 11 -12 0 -19 -5 -16 -10 3 -5 0 -8 -7 -5 -16 5 -24 48 -10 48 6 0 10
-4 10 -10 0 -5 10 -9 23 -7 19 2 22 -2 20 -28 -2 -24 0 -27 8 -13 5 10 9 25 7
34 -2 9 2 19 8 21 7 2 11 -4 10 -13 0 -9 5 -18 12 -20 7 -1 8 0 2 3 -13 6 -13
23 0 23 6 0 20 -15 31 -33 13 -21 18 -24 14 -10 -3 12 -1 24 5 28 6 3 10 -4
11 -17 0 -13 3 -17 6 -10 3 7 2 20 -3 30 -14 33 -13 43 4 38 22 -7 49 9 33 18
-6 4 -11 12 -11 18 0 7 4 7 13 0 11 -10 17 -12 35 -12 4 0 0 -5 -8 -10 -10 -7
-11 -10 -2 -10 7 0 15 6 18 14 3 8 13 12 22 9 13 -4 14 -3 4 5 -8 5 -24 8 -38
6 -13 -1 -24 1 -24 6 0 12 48 18 59 7 6 -6 15 -6 26 1 21 11 55 4 55 -11 0 -6
3 -8 6 -5 3 4 1 15 -5 26 -9 16 -7 24 5 36 9 9 20 14 25 11 5 -4 9 -1 9 4 0 6
5 11 11 11 5 0 8 -4 5 -9 -3 -4 1 -17 9 -27 13 -18 14 -18 38 5 15 13 31 20
38 16 7 -5 10 -4 6 2 -4 6 0 14 9 17 11 4 14 1 9 -13 -5 -17 11 -32 31 -30 4
0 11 -5 16 -13 8 -10 9 -10 5 2 -2 8 -9 15 -15 15 -6 0 -17 6 -24 14 -11 12
-10 13 4 8 9 -3 22 1 28 8 13 15 30 11 30 -6 0 -6 -4 -7 -10 -4 -5 3 -10 1
-10 -5 0 -6 6 -10 13 -9 25 3 38 -1 32 -11 -3 -6 1 -7 10 -4 11 5 14 2 9 -10
-3 -9 -4 -16 -1 -16 3 0 7 7 11 15 3 9 -4 20 -21 29 l-27 14 31 15 c29 15 43
14 43 -5 0 -4 -3 -7 -7 -7 -5 1 -15 1 -23 0 -12 -1 -11 -4 4 -12 20 -12 40 5
31 28 -6 18 14 27 30 13 8 -7 15 -9 15 -5 0 4 6 2 13 -4 8 -6 16 -10 18 -8 2
1 -2 -3 -9 -9 -7 -7 -23 -10 -35 -8 l-22 5 23 -10 c12 -6 22 -15 22 -21 0 -7
9 -9 23 -5 20 6 21 5 5 -8 -16 -12 -13 -14 23 -14 22 0 35 3 29 7 -7 4 -8 10
-4 13 5 3 25 -10 44 -29 19 -19 38 -34 43 -34 5 0 15 -7 23 -15 12 -11 19 -12
33 -3 11 6 17 18 13 26 -4 12 -1 12 17 2 13 -6 25 -9 28 -6 9 8 -39 24 -64 21
-25 -2 -28 2 -14 24 6 9 11 10 15 2 6 -10 83 -36 97 -33 4 1 6 -10 5 -23 0
-14 -5 -23 -11 -21 -5 1 -9 12 -7 22 3 18 3 18 -11 -1 -9 -11 -19 -17 -22 -13
-11 11 -47 -11 -39 -24 5 -7 2 -9 -8 -6 -8 4 -15 0 -15 -7 0 -10 5 -11 19 -4
10 6 16 14 13 20 -4 5 -1 9 5 9 6 0 13 -7 16 -15 4 -8 11 -15 16 -15 6 0 5 7
-2 15 -12 14 -10 15 16 10 16 -4 42 -8 57 -9 15 -2 33 -9 40 -16 10 -10 7 -12
-12 -7 -26 6 -51 -7 -51 -27 0 -6 5 -3 11 6 5 10 15 18 20 18 6 0 7 -4 4 -10
-9 -15 -15 -54 -7 -46 4 4 8 12 8 17 1 5 2 13 3 18 2 15 39 19 58 6 15 -10 20
-10 32 2 12 13 11 14 -10 8 -21 -7 -22 -6 -10 8 10 12 18 14 32 7 10 -6 17
-16 15 -23 -1 -6 -1 -9 1 -4 3 4 11 7 19 7 8 0 14 4 14 10 0 5 -7 6 -17 3 -10
-4 -14 -2 -10 4 6 9 0 11 -40 14 -10 1 -25 8 -35 16 -11 10 -18 11 -23 4 -3
-6 -11 -11 -17 -11 -6 0 -6 6 2 15 12 14 47 12 60 -4 5 -6 15 -9 52 -16 9 -2
26 -9 37 -15 12 -6 21 -7 21 -3 0 4 5 2 12 -5 7 -7 20 -12 29 -12 12 0 17 -7
16 -20 -1 -23 -17 -28 -17 -5 0 8 -5 15 -11 15 -11 0 -5 -15 19 -42 8 -10 19
-15 24 -12 5 3 14 1 21 -5 8 -6 18 -7 27 0 12 8 11 9 -4 7 -10 -2 -21 2 -23 8
-2 7 6 10 22 9 14 -2 23 1 19 6 -3 5 -10 7 -15 3 -5 -3 -17 0 -26 8 -9 7 -14
8 -10 2 4 -7 0 -17 -8 -24 -11 -9 -14 -8 -12 9 1 20 10 26 32 21 6 -1 15 -3
20 -4 6 -1 25 -10 43 -19 17 -10 32 -14 32 -10 0 4 5 2 12 -5 9 -9 9 -15 -1
-24 -11 -11 -13 -10 -8 3 3 9 0 16 -9 16 -7 0 -10 -5 -7 -10 3 -5 6 -19 7 -31
1 -12 8 -21 16 -21 10 0 14 8 12 24 -2 21 0 22 15 10 16 -13 17 -12 4 4 -8 9
-11 20 -8 23 3 3 10 -4 17 -15 6 -12 8 -21 6 -21 -3 0 3 -16 14 -35 19 -34 19
-35 0 -45 -28 -15 -32 -12 -20 11 7 11 10 23 7 25 -2 2 -9 -7 -15 -21 -13 -29
-1 -41 27 -25 27 14 31 13 24 -7 -4 -11 -3 -14 5 -9 7 4 12 1 12 -8 0 -8 5
-16 11 -18 5 -2 11 -10 12 -18 2 -8 7 -21 11 -29 7 -10 6 -12 -4 -6 -9 5 -11
4 -6 -4 4 -6 12 -9 17 -5 6 3 16 -2 24 -12 11 -16 11 -21 -1 -35 -12 -14 -12
-16 1 -16 8 0 12 4 9 9 -13 20 27 5 44 -17 11 -13 23 -21 27 -17 5 4 5 -1 2
-10 -4 -11 -2 -17 6 -15 7 1 11 -3 10 -10 -4 -19 45 -52 67 -46 12 3 28 -1 38
-10 9 -8 43 -23 74 -33 49 -16 57 -22 52 -39 l-6 -20 16 20 c9 11 16 15 16 7
0 -7 -9 -20 -20 -29 -22 -20 -26 -33 -8 -33 6 0 9 3 6 6 -3 3 7 19 23 37 16
17 31 28 35 24 9 -9 -4 -39 -15 -33 -7 5 -21 -14 -21 -29 0 -10 35 -14 41 -4
5 9 12 8 24 -5 23 -23 45 -5 24 20 -12 16 -12 17 4 11 10 -4 21 -7 23 -7 3 0
3 -4 0 -9 -3 -4 4 -8 16 -7 27 1 35 21 12 30 -14 5 -15 4 -4 -9 9 -11 9 -15 1
-15 -6 0 -14 7 -17 15 -4 8 -10 12 -15 9 -5 -3 -9 0 -9 7 0 8 -3 9 -14 0 -10
-8 -16 -8 -24 2 -10 11 0 13 53 13 55 -1 64 -3 60 -17 -3 -9 2 -22 12 -30 9
-8 14 -9 11 -4 -7 11 11 29 30 31 28 2 32 5 30 16 -2 7 7 14 20 16 15 2 23 -1
21 -10 -3 -27 1 -39 13 -32 8 5 9 2 5 -9 -3 -10 -2 -17 3 -17 16 0 12 30 -4
36 -19 7 -9 34 18 44 23 8 56 -4 56 -22 0 -6 -7 -4 -17 5 -15 12 -21 13 -34 3
-14 -10 -15 -15 -4 -29 12 -17 31 -24 21 -8 -13 20 24 19 39 -2 8 -12 15 -16
15 -10 0 7 -5 15 -10 18 -6 4 -8 11 -4 16 3 6 -2 20 -12 32 -11 12 -15 19 -10
15 5 -4 23 0 40 9 17 10 34 16 39 15 4 -1 7 2 7 8 0 5 7 7 16 3 15 -6 15 -8
-2 -20 -10 -7 -24 -11 -31 -9 -7 3 -15 0 -19 -6 -4 -7 -3 -8 4 -4 7 4 12 2 12
-5 0 -6 -8 -9 -19 -6 -14 3 -18 1 -14 -9 6 -17 25 -14 41 9 23 30 34 18 12
-13 -12 -16 -17 -30 -12 -30 5 0 14 11 20 25 8 17 17 23 29 18 15 -5 15 -3 -2
10 -20 16 -20 16 3 14 12 -1 22 -5 22 -11 0 -5 10 -1 21 10 21 19 22 19 15 -3
-4 -13 -3 -23 2 -23 6 0 8 12 6 28 -3 15 -5 33 -6 39 -1 10 -5 10 -15 1 -8 -6
-12 -17 -9 -24 8 -20 -30 -13 -43 8 -6 10 -7 18 -2 18 5 0 18 8 27 17 16 17
17 17 11 1 -4 -12 -2 -15 8 -11 8 3 12 10 9 15 -4 6 5 3 18 -6 14 -9 28 -13
33 -9 4 5 5 2 1 -5 -5 -8 -3 -13 5 -11 30 4 59 -1 59 -10 0 -6 -9 -9 -20 -8
-11 1 -20 6 -20 11 0 6 -5 5 -12 -2 -9 -9 -15 -7 -25 6 -13 16 -13 15 -5 -3 5
-11 8 -26 6 -33 -1 -7 0 -8 3 -2 7 15 23 2 17 -14 -3 -8 -1 -17 5 -21 12 -7
10 22 -3 43 -11 19 46 7 60 -13 12 -16 29 -21 19 -5 -3 5 -2 10 3 10 5 0 13
-10 19 -22 8 -19 10 -20 16 -4 4 9 3 15 -2 12 -5 -3 -12 1 -15 10 -4 9 -13 14
-22 10 -10 -4 -13 -2 -8 6 5 7 3 8 -6 3 -8 -5 -11 -4 -7 3 8 12 47 4 65 -14 7
-7 19 -11 26 -8 8 3 17 1 21 -5 3 -7 0 -8 -9 -5 -10 4 -20 -3 -27 -20 -7 -14
-16 -23 -22 -19 -6 4 -7 1 -3 -6 5 -7 11 -10 14 -7 3 3 11 1 19 -5 14 -12 43
4 43 23 0 5 -7 2 -16 -6 -8 -9 -20 -14 -25 -11 -13 9 -11 25 4 21 6 -1 9 -1 5
1 -14 8 -8 25 7 20 8 -4 17 -2 20 3 3 5 20 3 38 -5 33 -14 43 -45 24 -72 -6
-8 -4 -15 7 -19 9 -3 14 -9 11 -13 -2 -4 2 -8 10 -8 8 0 15 4 15 9 0 4 -5 8
-11 8 -8 0 -7 6 2 18 11 14 11 15 -1 4 -18 -15 -38 -16 -23 -1 6 6 9 18 6 25
-3 9 2 14 13 14 16 0 17 2 4 10 -8 5 -10 10 -5 10 13 0 35 -20 35 -32 0 -4 -8
-5 -17 -2 -15 5 -16 4 -3 -5 11 -8 18 -7 27 6 7 9 16 13 20 10 4 -4 1 -13 -5
-19 -7 -7 -12 -17 -12 -22 0 -6 7 -1 15 11 9 12 22 19 32 17 10 -3 27 2 38 11
11 9 15 14 8 11 -17 -9 -3 37 15 48 11 6 11 10 2 16 -8 5 -8 11 4 22 8 9 12
18 9 22 -4 3 -2 6 3 6 5 0 11 12 12 26 1 15 7 33 13 40 6 8 8 14 4 14 -4 0 0
12 10 26 9 14 14 28 11 31 -4 4 9 46 39 118 5 11 9 23 10 28 2 4 3 8 5 10 1 1
3 10 5 20 5 24 64 197 78 224 5 13 8 25 6 27 -4 5 -312 114 -334 120 -23 5
-111 40 -119 47 -5 4 -21 37 -36 72 -79 187 -243 328 -441 380 -31 8 -101 15
-155 16 -120 2 -215 -22 -322 -80 -46 -25 -78 -37 -85 -32 -7 5 -45 20 -84 33
-40 13 -73 28 -73 33 0 4 -5 5 -10 2 -6 -4 -18 -1 -27 7 -9 7 -18 12 -20 11
-1 -2 -11 -3 -20 -2 -11 0 -13 3 -5 6 6 2 12 9 12 14 0 6 -6 7 -17 1 -17 -10
-63 4 -63 19 0 14 18 20 26 8 5 -8 3 -9 -6 -4 -9 6 -11 4 -5 -4 5 -9 10 -10
18 -2 18 18 31 13 16 -6 -7 -10 -2 -8 11 4 20 18 22 25 12 35 -11 11 -12 10
-7 -2 4 -11 -1 -16 -15 -16 -11 0 -20 3 -20 6 1 11 81 61 90 55 5 -3 7 0 4 8
-3 8 5 21 18 29 13 9 33 25 45 37 13 12 25 17 28 11 3 -6 1 -10 -5 -10 -6 0
-8 -5 -4 -11 10 -16 23 9 17 32 -3 12 0 19 8 19 7 0 24 12 36 27 13 14 23 22
23 17 0 -5 4 -2 10 6 5 8 13 11 17 6 4 -4 -2 -16 -15 -26 -26 -21 -27 -26 -8
-33 11 -4 13 -1 9 11 -6 15 -5 15 10 3 11 -9 17 -10 17 -2 0 6 -5 11 -11 11
-8 0 -8 4 1 15 6 8 9 19 5 25 -7 12 11 40 26 40 5 0 9 -7 9 -16 0 -8 -4 -12
-10 -9 -5 3 -10 1 -10 -5 0 -7 6 -10 13 -7 6 2 12 15 12 28 0 27 89 129 113
129 6 0 11 5 10 12 -2 6 8 17 22 25 14 7 21 13 15 13 -5 0 15 25 45 54 30 30
67 70 83 88 15 18 41 49 58 68 17 19 37 45 46 57 18 28 31 29 50 5 13 -14 12
-12 0 9 -14 23 -13 27 1 38 12 8 13 10 2 6 -8 -4 -5 2 8 13 12 11 22 25 22 31
0 7 7 14 15 17 8 4 12 11 8 17 -3 6 -1 7 5 3 7 -4 12 -2 12 4 0 10 7 21 37 54
7 8 9 17 5 21 -4 5 -2 5 5 1 8 -4 15 2 19 19 3 14 10 25 15 25 5 0 9 7 9 15 0
8 7 15 16 15 8 0 13 4 10 9 -3 5 1 14 9 21 8 7 15 20 15 29 1 13 3 13 15 -3
16 -22 45 -30 45 -14 0 6 -7 7 -16 4 -12 -5 -15 -2 -10 9 3 9 2 14 -3 11 -5
-3 -12 1 -15 10 -4 11 -2 15 8 11 8 -3 22 1 33 9 17 14 16 14 -4 4 -27 -13
-30 -3 -5 17 10 8 11 11 2 7 -13 -7 -13 -5 -1 9 7 9 18 14 23 11 5 -3 8 2 6
11 -2 11 4 19 15 21 11 1 22 6 25 10 4 4 -1 4 -12 0 -14 -5 -17 -3 -12 10 3 8
6 19 6 24 0 5 9 12 20 15 11 4 18 10 15 15 -9 14 25 60 44 61 12 0 11 2 -4 9
-11 5 -15 9 -9 9 6 1 19 19 29 41 10 22 22 40 27 40 5 0 6 -5 2 -12 -4 -7 -3
-8 5 -4 8 5 9 12 2 19 -10 13 33 94 48 90 5 -1 7 7 4 17 -4 15 0 20 13 21 11
0 14 3 7 5 -16 7 18 86 34 79 7 -2 15 1 19 7 4 7 3 8 -4 4 -7 -4 -12 -3 -12 3
0 15 22 61 29 61 4 0 7 9 8 20 1 11 12 34 24 52 13 17 18 29 12 25 -8 -5 -8 0
0 18 7 14 19 25 27 25 13 0 13 1 0 10 -13 8 -12 11 5 25 11 9 13 13 5 9 -12
-6 -13 -4 -2 7 6 7 12 21 12 32 0 10 4 16 9 13 5 -3 14 1 21 9 11 13 10 14 -4
9 -22 -9 -20 8 6 42 13 15 17 25 11 21 -9 -6 -10 0 -2 23 6 16 14 30 19 30 4
0 7 10 6 23 0 12 4 21 10 20 7 -1 9 8 6 22 -3 19 0 25 14 26 11 0 14 3 7 6
-18 7 -16 23 2 23 8 0 15 5 15 11 0 5 -4 7 -10 4 -13 -8 -13 -3 2 32 6 15 12
34 14 42 9 45 16 61 24 56 5 -3 12 -1 15 5 4 6 2 9 -3 8 -10 -3 -12 1 -12 25
0 8 4 7 10 -3 6 -9 10 -10 10 -3 0 6 -5 15 -12 19 -7 5 -5 11 7 21 11 7 14 13
8 13 -8 0 -8 8 0 29 6 17 16 27 21 23 6 -3 4 3 -4 13 -9 11 -10 16 -2 11 6 -4
12 -3 12 3 0 5 -6 12 -12 14 -7 3 -4 6 7 6 12 1 16 4 9 9 -8 5 -6 27 5 75 13
51 19 65 29 57 7 -5 6 -3 -2 6 -10 12 -11 25 -4 54 8 31 14 38 30 35 12 -3 17
-1 14 3 -4 4 -13 7 -19 7 -7 1 -11 7 -9 13 1 7 3 24 4 37 1 14 5 25 8 25 3 0
5 14 4 30 -3 38 6 71 16 65 5 -3 12 -1 15 5 4 6 1 9 -6 8 -13 -3 -14 24 -3 97
3 17 6 38 7 48 1 10 9 23 17 28 12 9 12 10 -3 5 -14 -5 -17 -2 -12 13 3 10 6
35 7 55 1 20 6 36 11 36 5 0 4 7 -3 15 -9 11 -9 15 -1 15 8 0 9 5 3 16 -11 20
-3 66 11 57 6 -4 7 -1 1 8 -14 23 -13 40 3 46 12 5 12 7 1 14 -15 10 -17 41
-3 51 6 5 6 8 -2 8 -6 0 -9 8 -7 18 7 25 10 272 4 272 -3 0 -6 33 -7 73 -1 39
-4 83 -6 97 -1 14 2 28 8 32 6 5 6 8 -2 8 -7 0 -13 9 -13 20 0 11 6 20 13 20
9 0 9 2 -1 8 -11 8 -23 92 -26 189 0 22 -4 39 -8 36 -5 -2 -7 6 -7 19 0 13 -2
37 -5 53 -3 17 -9 46 -12 65 -11 61 -14 79 -20 108 -3 15 -7 36 -9 47 -6 36
-14 69 -24 103 -5 17 -8 32 -5 32 3 0 0 8 -5 18 -7 13 -6 23 2 32 9 10 9 11 0
6 -7 -4 -14 -2 -14 3 -1 6 -2 14 -4 19 -8 32 -19 88 -17 95 1 4 -3 7 -9 7 -8
0 -7 6 2 17 8 9 9 14 2 10 -13 -8 -28 27 -19 42 4 5 1 11 -4 13 -6 2 -12 10
-14 18 -1 8 -8 33 -15 55 -16 52 -18 58 -20 68 0 4 -8 24 -17 45 -8 20 -17 44
-19 52 -2 8 -22 60 -44 115 -23 55 -39 106 -36 113 3 7 0 10 -5 7 -6 -3 -13 2
-16 12 -3 10 -13 33 -21 51 -8 18 -11 38 -7 45 4 6 3 9 -1 5 -5 -5 -38 52 -75
125 -37 74 -87 167 -111 208 -24 41 -44 76 -44 79 -2 15 -253 390 -275 410 -3
3 -19 23 -35 45 -83 112 -225 272 -375 424 -518 523 -1171 920 -1870 1136
-100 31 -249 73 -280 78 -14 3 -56 12 -95 21 -61 14 -178 35 -270 50 -63 11
-173 25 -235 31 -36 3 -83 8 -105 11 -43 5 -592 14 -597 9z m-2490 -8170 c14
-29 -2 -34 -18 -6 -12 24 -13 31 -2 31 5 0 14 -11 20 -25z m4667 -520 c34 -4
35 -5 35 -17 0 -6 -3 -9 -6 -5 -4 3 -20 -1 -36 -9 -16 -8 -33 -12 -38 -9 -12
7 -4 25 11 25 6 0 7 -5 3 -11 -4 -7 2 -7 17 1 31 16 39 25 15 16 -10 -3 -25
-1 -32 5 -11 9 -14 9 -14 0 0 -7 -5 -9 -10 -6 -6 4 -7 11 -4 17 4 7 2 8 -5 4
-8 -5 -9 -12 -2 -20 7 -9 5 -17 -9 -29 -18 -15 -20 -15 -35 6 -19 27 -19 34 0
34 8 0 14 -6 13 -13 -2 -7 1 -12 7 -11 5 1 8 8 7 16 -5 20 19 31 42 19 11 -6
29 -12 41 -13z m-145 -27 c0 6 5 12 10 12 19 0 10 -17 -16 -29 -26 -11 -44 -8
-44 9 0 5 7 7 15 4 9 -4 15 0 15 7 0 11 3 11 10 -1 6 -10 10 -11 10 -2z m-51
-48 c-16 -10 -30 6 -22 26 4 11 8 10 21 -2 13 -13 13 -17 1 -24z m351 17 c0
-21 -12 -28 -27 -16 -10 9 -13 8 -13 0 0 -7 -5 -9 -11 -5 -8 4 -3 12 12 20 31
17 39 17 39 1z m53 -16 c4 -1 13 -1 20 -1 6 0 4 -5 -6 -11 -13 -7 -22 -7 -31
0 -10 8 -17 7 -26 -4 -7 -8 -18 -15 -24 -15 -6 1 -1 9 11 19 12 10 19 22 15
26 -4 4 2 3 13 -3 11 -5 23 -10 28 -11z m-510 -15 c4 -9 0 -14 -11 -14 -9 0
-25 -3 -34 -7 -11 -4 -18 -3 -18 5 0 6 5 8 10 5 6 -3 10 -1 10 5 0 6 4 9 9 5
5 -3 12 -1 16 5 8 13 12 13 18 -4z m580 -24 c-1 -11 5 -26 14 -34 12 -9 15 -9
9 0 -4 6 -2 12 3 12 13 0 15 -27 2 -34 -5 -3 -14 1 -21 9 -7 8 -17 15 -23 15
-13 0 -47 30 -47 41 0 4 8 9 18 11 32 8 47 1 45 -20z m-3773 -27 c7 -8 8 -15
2 -15 -5 0 -15 7 -22 15 -7 8 -8 15 -2 15 5 0 15 -7 22 -15z m3048 -13 c2 -7
-1 -12 -7 -12 -6 0 -11 5 -11 10 0 6 -11 3 -25 -6 -16 -10 -25 -12 -25 -5 0
12 38 31 54 27 6 -1 12 -8 14 -14z m880 -17 c0 -14 -4 -25 -8 -25 -6 0 -7 37
-1 48 4 9 9 -2 9 -23z m-954 0 c3 -8 12 -12 20 -9 9 4 14 0 12 -10 -2 -18 -16
-34 -16 -19 0 14 -49 35 -63 26 -17 -10 -47 -11 -41 -1 4 5 12 7 20 4 8 -3 14
-1 14 4 0 7 15 14 41 19 4 0 9 -6 13 -14z m980 0 c-4 -8 -10 -12 -15 -9 -11 6
-2 24 11 24 5 0 7 -7 4 -15z m53 -51 c-3 -3 -13 0 -21 9 -8 8 -12 18 -9 21 4
4 14 0 22 -9 8 -8 12 -17 8 -21z m-1572 -102 c1 -13 -3 -21 -9 -19 -6 2 -10
13 -9 23 1 18 1 18 -13 -1 -8 -11 -21 -19 -28 -17 -7 1 -21 -6 -32 -15 -11
-10 -25 -19 -32 -20 -19 -5 -14 15 8 27 11 6 20 18 20 28 0 15 2 15 10 2 8
-12 10 -12 10 -1 0 11 3 11 17 0 14 -12 16 -12 8 0 -5 9 -4 12 3 7 6 -3 14 -2
17 4 11 17 28 6 30 -18z m1905 -22 c0 -5 -4 -10 -10 -10 -5 0 -10 5 -10 10 0
6 5 10 10 10 6 0 10 -4 10 -10z m-2930 -40 c0 -5 5 -10 11 -10 5 0 8 4 5 8 -3
5 2 9 10 9 9 0 13 -6 9 -16 -4 -13 -3 -13 8 1 12 15 14 15 26 -4 11 -18 10
-19 -8 -13 -10 3 -22 2 -25 -3 -3 -5 -15 -8 -28 -7 -16 1 -23 8 -24 23 -1 12
3 22 7 22 5 0 9 -4 9 -10z m130 -1 c0 -9 -42 -19 -52 -13 -17 11 -7 20 22 19
17 0 30 -3 30 -6z m50 -2 c0 -4 5 -5 12 -1 16 10 98 12 98 2 0 -14 -38 -29
-42 -17 -2 7 -13 9 -27 4 -18 -6 -21 -9 -10 -16 8 -5 9 -9 3 -9 -6 0 -17 7
-24 15 -18 21 -28 19 -60 -15 -25 -26 -29 -28 -41 -14 -10 13 -10 17 2 25 8 5
19 7 26 4 7 -2 14 4 17 13 6 18 46 25 46 9z m135 4 c3 -5 1 -12 -5 -16 -5 -3
-10 1 -10 9 0 18 6 21 15 7z m-517 -43 c-2 -6 -10 -14 -16 -16 -7 -2 -10 2 -6
12 7 18 28 22 22 4z m3426 -243 c11 -8 18 -17 15 -19 -2 -3 -15 4 -29 14 -14
11 -20 20 -15 19 6 0 19 -6 29 -14z m575 -116 c-16 -10 -23 -4 -14 10 3 6 11
8 17 5 6 -4 5 -9 -3 -15z m-159 -14 c-7 -9 -15 -13 -18 -10 -3 2 1 11 8 20 7
9 15 13 18 10 3 -2 -1 -11 -8 -20z m40 15 c0 -5 -4 -10 -10 -10 -5 0 -10 5
-10 10 0 6 5 10 10 10 6 0 10 -4 10 -10z m-168 -27 c10 -9 18 -21 18 -26 0 -6
-9 -2 -20 8 -15 14 -23 15 -33 6 -8 -6 -17 -8 -20 -4 -6 5 20 32 32 33 3 0 13
-7 23 -17z"/>
<path d="M7096 1032 c-2 -4 -1 -14 3 -20 6 -10 11 -9 21 3 7 8 10 18 6 22 -3
3 -6 1 -6 -5 0 -7 -5 -12 -11 -12 -5 0 -7 5 -4 10 3 6 4 10 1 10 -3 0 -7 -4
-10 -8z"/>
<path d="M9456 4892 c-2 -4 -1 -14 4 -22 7 -11 9 -9 7 8 -1 24 -3 26 -11 14z"/>
<path d="M9429 4673 c-13 -16 -12 -17 4 -4 9 7 17 15 17 17 0 8 -8 3 -21 -13z"/>
<path d="M9410 4569 c0 -5 5 -7 10 -4 6 3 10 8 10 11 0 2 -4 4 -10 4 -5 0 -10
-5 -10 -11z"/>
<path d="M9415 4490 c-3 -5 -1 -10 4 -10 6 0 11 5 11 10 0 6 -2 10 -4 10 -3 0
-8 -4 -11 -10z"/>
<path d="M414 4452 c4 -3 14 -7 22 -8 9 -1 13 0 10 4 -4 3 -14 7 -22 8 -9 1
-13 0 -10 -4z"/>
<path d="M430 4376 c0 -2 7 -7 16 -10 8 -3 12 -2 9 4 -6 10 -25 14 -25 6z"/>
<path d="M9390 4371 c0 -6 4 -13 10 -16 6 -3 7 1 4 9 -7 18 -14 21 -14 7z"/>
<path d="M9347 4269 c7 -7 15 -10 18 -7 3 3 -2 9 -12 12 -14 6 -15 5 -6 -5z"/>
<path d="M496 4152 c-3 -5 1 -9 9 -9 8 0 12 4 9 9 -3 4 -7 8 -9 8 -2 0 -6 -4
-9 -8z"/>
<path d="M9326 4092 c-3 -5 1 -9 9 -9 8 0 12 4 9 9 -3 4 -7 8 -9 8 -2 0 -6 -4
-9 -8z"/>
<path d="M495 4050 c3 -5 8 -10 11 -10 2 0 4 5 4 10 0 6 -5 10 -11 10 -5 0 -7
-4 -4 -10z"/>
<path d="M514 4028 c-4 -7 -4 -10 1 -6 4 4 15 2 24 -5 14 -11 14 -10 2 6 -16
20 -18 21 -27 5z"/>
<path d="M506 3992 c-3 -5 1 -9 9 -9 8 0 12 4 9 9 -3 4 -7 8 -9 8 -2 0 -6 -4
-9 -8z"/>
<path d="M553 3965 c0 -8 4 -12 9 -9 5 3 6 10 3 15 -9 13 -12 11 -12 -6z"/>
<path d="M510 3956 c0 -2 7 -7 16 -10 8 -3 12 -2 9 4 -6 10 -25 14 -25 6z"/>
<path d="M9273 3935 c0 -8 4 -12 9 -9 5 3 6 10 3 15 -9 13 -12 11 -12 -6z"/>
<path d="M9280 3910 c-9 -6 -10 -10 -3 -10 6 0 15 5 18 10 8 12 4 12 -15 0z"/>
<path d="M597 3817 c-3 -8 1 -14 8 -14 7 0 11 6 8 14 -3 7 -6 13 -8 13 -2 0
-5 -6 -8 -13z"/>
<path d="M9233 3795 c0 -8 4 -12 9 -9 5 3 6 10 3 15 -9 13 -12 11 -12 -6z"/>
<path d="M9269 3793 c-13 -16 -12 -17 4 -4 16 13 21 21 13 21 -2 0 -10 -8 -17
-17z"/>
<path d="M576 3772 c-3 -5 1 -9 9 -9 8 0 12 4 9 9 -3 4 -7 8 -9 8 -2 0 -6 -4
-9 -8z"/>
<path d="M9216 3757 c3 -10 9 -15 12 -12 3 3 0 11 -7 18 -10 9 -11 8 -5 -6z"/>
<path d="M530 3751 c0 -6 4 -13 10 -16 6 -3 7 1 4 9 -7 18 -14 21 -14 7z"/>
<path d="M9191 3737 c-8 -10 -7 -14 2 -14 8 0 14 6 14 14 0 7 -1 13 -2 13 -2
0 -8 -6 -14 -13z"/>
<path d="M630 3731 c0 -6 4 -13 10 -16 6 -3 7 1 4 9 -7 18 -14 21 -14 7z"/>
<path d="M9210 3689 c0 -5 5 -7 10 -4 6 3 10 8 10 11 0 2 -4 4 -10 4 -5 0 -10
-5 -10 -11z"/>
<path d="M9160 3675 c0 -2 6 -8 13 -14 10 -8 14 -7 14 2 0 8 -6 14 -14 14 -7
0 -13 -1 -13 -2z"/>
<path d="M650 3631 c0 -6 4 -13 10 -16 6 -3 7 1 4 9 -7 18 -14 21 -14 7z"/>
<path d="M9174 3628 c-4 -7 -4 -10 1 -6 4 4 15 2 24 -5 14 -11 14 -10 2 6 -16
20 -18 21 -27 5z"/>
<path d="M9155 3559 c-4 -6 -5 -12 -2 -15 2 -3 7 2 10 11 7 17 1 20 -8 4z"/>
<path d="M655 3530 c-3 -5 -1 -10 4 -10 6 0 11 5 11 10 0 6 -2 10 -4 10 -3 0
-8 -4 -11 -10z"/>
<path d="M9107 3469 c7 -7 15 -10 18 -7 3 3 -2 9 -12 12 -14 6 -15 5 -6 -5z"/>
<path d="M730 3449 c0 -5 5 -7 10 -4 6 3 10 8 10 11 0 2 -4 4 -10 4 -5 0 -10
-5 -10 -11z"/>
<path d="M750 3404 c6 -6 6 -15 2 -19 -4 -5 -2 -5 5 -2 6 4 13 1 16 -5 2 -7 4
-2 3 12 -1 17 -7 26 -18 26 -11 0 -14 -4 -8 -12z"/>
<path d="M9066 3412 c6 -4 10 -15 8 -25 -1 -9 2 -14 8 -11 5 3 7 9 4 12 -3 3
-2 10 4 16 6 8 2 12 -13 13 -12 1 -17 -1 -11 -5z"/>
<path d="M9040 3370 c-9 -6 -10 -10 -3 -10 6 0 15 5 18 10 8 12 4 12 -15 0z"/>
<path d="M770 3351 c0 -6 4 -13 10 -16 6 -3 7 1 4 9 -7 18 -14 21 -14 7z"/>
<path d="M9036 3312 c-3 -5 1 -9 9 -9 8 0 12 4 9 9 -3 4 -7 8 -9 8 -2 0 -6 -4
-9 -8z"/>
<path d="M793 3284 c0 -9 4 -11 12 -4 7 5 14 9 16 7 2 -1 3 0 1 2 -7 11 -29 7
-29 -5z"/>
<path d="M8991 3274 c0 -11 3 -14 6 -6 3 7 2 16 -1 19 -3 4 -6 -2 -5 -13z"/>
<path d="M773 3255 c0 -8 4 -12 9 -9 5 3 6 10 3 15 -9 13 -12 11 -12 -6z"/>
<path d="M840 3261 c0 -7 -5 -9 -12 -5 -7 5 -8 3 -3 -5 5 -9 10 -10 18 -2 6 6
8 14 4 18 -4 3 -7 1 -7 -6z"/>
<path d="M835 3200 c-4 -6 -11 -7 -17 -4 -7 4 -8 2 -4 -5 6 -9 11 -9 22 0 14
11 18 19 10 19 -3 0 -8 -5 -11 -10z"/>
<path d="M866 3174 c-5 -14 -4 -15 9 -4 17 14 19 20 6 20 -5 0 -12 -7 -15 -16z"/>
<path d="M8958 3173 c7 -3 16 -2 19 1 4 3 -2 6 -13 5 -11 0 -14 -3 -6 -6z"/>
<path d="M836 3157 c3 -10 9 -15 12 -12 3 3 0 11 -7 18 -10 9 -11 8 -5 -6z"/>
<path d="M8930 3152 c0 -4 11 -8 25 -8 28 0 24 8 -5 13 -11 2 -20 -1 -20 -5z"/>
<path d="M8913 3133 c4 -6 2 -13 -5 -15 -8 -3 -6 -6 4 -10 17 -7 19 15 3 29
-4 4 -5 3 -2 -4z"/>
<path d="M835 3111 c-3 -5 -2 -12 3 -15 5 -3 9 1 9 9 0 17 -3 19 -12 6z"/>
<path d="M915 3080 c-4 -6 -11 -7 -17 -4 -7 4 -8 2 -4 -5 6 -9 11 -9 22 0 14
11 18 19 10 19 -3 0 -8 -5 -11 -10z"/>
<path d="M8919 3088 c-5 -9 -5 -48 -1 -43 6 6 11 45 5 45 -2 0 -4 -1 -4 -2z"/>
<path d="M856 3063 c-6 -14 -5 -15 5 -6 7 7 10 15 7 18 -3 3 -9 -2 -12 -12z"/>
<path d="M8875 3061 c-6 -11 13 -26 22 -17 4 3 1 6 -6 6 -7 0 -9 5 -6 10 3 6
4 10 1 10 -3 0 -7 -4 -11 -9z"/>
<path d="M915 3050 c-3 -5 -1 -10 4 -10 6 0 11 5 11 10 0 6 -2 10 -4 10 -3 0
-8 -4 -11 -10z"/>
<path d="M937 3035 c-4 -8 -3 -16 1 -19 4 -3 9 4 9 15 2 23 -3 25 -10 4z"/>
<path d="M925 2990 c10 -11 20 -20 23 -20 3 0 -3 9 -13 20 -10 11 -20 20 -23
20 -3 0 3 -9 13 -20z"/>
<path d="M955 3001 c-3 -5 -2 -12 3 -15 5 -3 9 1 9 9 0 17 -3 19 -12 6z"/>
<path d="M8860 2990 c-8 -5 -10 -10 -5 -10 6 0 17 5 25 10 8 5 11 10 5 10 -5
0 -17 -5 -25 -10z"/>
<path d="M979 2978 c-7 -23 -4 -35 7 -35 8 0 14 4 14 9 0 4 -5 8 -11 8 -5 0
-7 5 -4 10 3 6 4 10 1 10 -3 0 -6 -1 -7 -2z"/>
<path d="M8836 2925 c-9 -26 -7 -32 5 -12 6 10 9 21 6 23 -2 3 -7 -2 -11 -11z"/>
<path d="M973 2917 c0 -7 13 -13 29 -14 28 -1 33 7 6 11 -7 1 -18 5 -24 8 -6
4 -11 2 -11 -5z"/>
<path d="M8780 2896 c0 -2 7 -7 16 -10 8 -3 12 -2 9 4 -6 10 -25 14 -25 6z"/>
<path d="M8850 2890 c0 -5 5 -10 11 -10 5 0 7 5 4 10 -3 6 -8 10 -11 10 -2 0
-4 -4 -4 -10z"/>
<path d="M1036 2864 c-24 -24 -19 -30 7 -8 12 10 24 20 26 21 2 2 -1 3 -7 3
-6 0 -18 -7 -26 -16z"/>
<path d="M8770 2840 c-6 -11 -8 -20 -6 -20 3 0 10 9 16 20 6 11 8 20 6 20 -3
0 -10 -9 -16 -20z"/>
<path d="M1060 2830 c8 -5 20 -10 25 -10 6 0 3 5 -5 10 -8 5 -19 10 -25 10 -5
0 -3 -5 5 -10z"/>
<path d="M8815 2819 c-4 -6 -5 -12 -2 -15 2 -3 7 2 10 11 7 17 1 20 -8 4z"/>
<path d="M1053 2805 c0 -8 4 -12 9 -9 5 3 6 10 3 15 -9 13 -12 11 -12 -6z"/>
<path d="M8734 2768 c-3 -5 0 -7 8 -6 7 2 12 -4 10 -12 -2 -8 0 -11 4 -7 14
13 12 34 -3 34 -7 0 -16 -4 -19 -9z"/>
<path d="M1079 2742 c-13 -15 -12 -16 3 -4 13 10 17 10 21 0 4 -9 6 -9 6 -1 2
20 -16 24 -30 5z"/>
<path d="M1137 2732 c-3 -4 11 -23 30 -42 l36 -35 -23 33 c-13 17 -28 32 -32
32 -5 0 -6 5 -3 10 3 6 4 10 1 10 -3 0 -7 -3 -9 -8z"/>
<path d="M8755 2721 c-3 -5 -2 -12 3 -15 5 -3 9 1 9 9 0 17 -3 19 -12 6z"/>
<path d="M8670 2706 c0 -8 4 -18 10 -21 6 -4 7 1 3 11 -5 13 -3 15 7 9 9 -5
11 -4 6 3 -10 17 -26 15 -26 -2z"/>
<path d="M1136 2692 c-7 -12 6 -27 34 -41 24 -11 23 -11 -3 9 -15 12 -25 26
-21 31 3 5 3 9 0 9 -3 0 -7 -4 -10 -8z"/>
<path d="M8615 2651 c-3 -5 0 -13 6 -17 7 -4 9 -3 5 4 -3 6 2 13 11 15 16 4
16 5 1 6 -9 0 -19 -3 -23 -8z"/>
<path d="M1133 2635 c0 -8 4 -12 9 -9 5 3 6 10 3 15 -9 13 -12 11 -12 -6z"/>
<path d="M1156 2623 c-6 -14 -5 -15 5 -6 7 7 10 15 7 18 -3 3 -9 -2 -12 -12z"/>
<path d="M1215 2629 c-4 -6 -5 -12 -2 -15 2 -3 7 2 10 11 7 17 1 20 -8 4z"/>
<path d="M8613 2602 c-3 -7 -1 -18 5 -24 8 -8 9 -5 5 11 -4 16 -2 20 10 15 8
-3 17 -2 20 3 3 5 -4 9 -15 9 -11 0 -23 -6 -25 -14z"/>
<path d="M1206 2587 c3 -10 9 -15 12 -12 3 3 0 11 -7 18 -10 9 -11 8 -5 -6z"/>
<path d="M8580 2590 c-9 -6 -10 -10 -3 -10 6 0 15 5 18 10 8 12 4 12 -15 0z"/>
<path d="M1255 2570 c-3 -5 -1 -10 4 -10 6 0 11 5 11 10 0 6 -2 10 -4 10 -3 0
-8 -4 -11 -10z"/>
<path d="M8588 2563 c6 -2 10 -8 7 -13 -3 -5 3 -7 12 -5 10 1 25 -3 33 -9 13
-10 13 -9 1 6 -7 10 -17 16 -21 13 -5 -3 -11 -1 -15 5 -3 5 -12 10 -18 9 -9 0
-8 -2 1 -6z"/>
<path d="M8551 2544 c-1 -7 7 -22 17 -34 14 -18 19 -19 19 -7 0 9 -5 13 -10
10 -6 -4 -8 1 -4 11 4 9 3 15 -2 11 -5 -3 -12 1 -14 7 -4 8 -6 9 -6 2z"/>
<path d="M1235 2530 c3 -5 8 -10 11 -10 2 0 4 5 4 10 0 6 -5 10 -11 10 -5 0
-7 -4 -4 -10z"/>
<path d="M1276 2513 c-6 -14 -5 -15 5 -6 7 7 10 15 7 18 -3 3 -9 -2 -12 -12z"/>
<path d="M1229 2507 c6 -8 7 -18 3 -22 -4 -5 -1 -5 6 -1 10 6 10 11 1 22 -6 8
-14 14 -16 14 -3 0 0 -6 6 -13z"/>
<path d="M8515 2510 c-13 -6 -15 -9 -5 -9 8 0 22 4 30 9 18 12 2 12 -25 0z"/>
<path d="M1316 2497 c3 -10 9 -15 12 -12 3 3 0 11 -7 18 -10 9 -11 8 -5 -6z"/>
<path d="M1295 2491 c6 -10 2 -12 -16 -7 -13 3 -18 3 -11 0 6 -3 10 -9 7 -14
-3 -4 3 -14 13 -21 16 -13 16 -13 2 5 -14 18 -13 19 2 14 17 -7 20 14 3 29 -4
4 -5 2 0 -6z"/>
<path d="M8535 2490 c-3 -6 1 -7 9 -4 18 7 21 14 7 14 -6 0 -13 -4 -16 -10z"/>
<path d="M8490 2470 c-8 -5 -10 -10 -5 -10 6 0 17 5 25 10 8 5 11 10 5 10 -5
0 -17 -5 -25 -10z"/>
<path d="M8573 2461 c0 -11 5 -18 9 -15 4 3 5 11 1 19 -7 21 -12 19 -10 -4z"/>
<path d="M8510 2450 c0 -5 5 -10 10 -10 6 0 10 5 10 10 0 6 -4 10 -10 10 -5 0
-10 -4 -10 -10z"/>
<path d="M1304 2428 c-4 -7 -4 -10 1 -6 4 4 16 3 26 -3 11 -5 19 -7 19 -5 0 3
-9 10 -19 16 -15 7 -22 7 -27 -2z"/>
<path d="M8470 2430 c0 -4 7 -13 15 -20 13 -11 14 -10 9 5 -6 14 -4 16 7 10 8
-5 11 -4 6 0 -10 12 -37 15 -37 5z"/>
<path d="M1374 2405 c-3 -8 -11 -12 -17 -8 -6 3 -7 1 -3 -6 4 -6 12 -8 18 -5
8 5 9 1 5 -10 -4 -10 -3 -15 4 -11 5 4 7 16 3 27 -5 17 -3 18 15 9 12 -7 21
-9 21 -7 0 3 -9 10 -20 16 -16 9 -22 8 -26 -5z"/>
<path d="M8425 2390 c3 -5 11 -10 16 -10 6 0 7 5 4 10 -3 6 -11 10 -16 10 -6
0 -7 -4 -4 -10z"/>
<path d="M1396 2363 c-6 -14 -5 -15 5 -6 7 7 10 15 7 18 -3 3 -9 -2 -12 -12z"/>
<path d="M8396 2365 c-11 -8 -15 -15 -10 -15 6 0 16 6 23 13 11 10 13 9 8 -6
-5 -12 -3 -16 5 -11 7 5 9 2 6 -7 -4 -9 1 -15 12 -15 16 0 16 3 -3 28 -11 15
-21 28 -21 28 -1 0 -10 -7 -20 -15z"/>
<path d="M1415 2350 c-3 -5 -3 -10 1 -10 4 0 0 -6 -11 -13 -14 -11 -15 -16 -5
-22 8 -5 11 -4 7 2 -4 6 0 14 9 17 8 3 13 10 10 15 -4 5 2 12 11 14 16 4 16 5
1 6 -9 0 -20 -3 -23 -9z"/>
<path d="M8359 2323 c-13 -15 -12 -15 9 -4 23 12 28 21 13 21 -5 0 -15 -7 -22
-17z"/>
<path d="M1437 2309 c7 -7 15 -10 18 -7 3 3 -2 9 -12 12 -14 6 -15 5 -6 -5z"/>
<path d="M8392 2308 c2 -6 10 -13 16 -14 7 -1 8 0 2 3 -5 2 -8 9 -4 14 3 5 0
9 -6 9 -7 0 -10 -5 -8 -12z"/>
<path d="M1427 2283 c5 -12 3 -14 -8 -8 -8 4 -11 4 -6 0 6 -7 57 -15 57 -9 0
1 -11 9 -25 18 -23 15 -24 15 -18 -1z"/>
<path d="M1470 2292 c0 -5 7 -16 16 -23 14 -12 14 -14 -3 -20 -16 -7 -16 -8
-1 -8 26 -1 28 12 7 38 -10 13 -19 19 -19 13z"/>
<path d="M8358 2293 c20 -4 21 -7 10 -21 -12 -15 -11 -16 4 -3 22 16 14 31
-15 30 -21 -2 -21 -2 1 -6z"/>
<path d="M8336 2265 c4 -8 8 -15 10 -15 2 0 4 7 4 15 0 8 -4 15 -10 15 -5 0
-7 -7 -4 -15z"/>
<path d="M8300 2266 c0 -2 7 -9 15 -16 9 -7 15 -8 15 -2 0 5 -7 12 -15 16 -8
3 -15 4 -15 2z"/>
<path d="M8377 2240 c7 -8 20 -15 29 -16 9 -1 13 1 9 4 -4 4 -10 7 -13 7 -4 0
-14 4 -22 9 -12 7 -13 6 -3 -4z"/>
<path d="M8290 2236 c0 -2 7 -7 16 -10 8 -3 12 -2 9 4 -6 10 -25 14 -25 6z"/>
<path d="M8335 2231 c-3 -5 -2 -12 3 -15 5 -3 9 1 9 9 0 17 -3 19 -12 6z"/>
<path d="M8255 2199 c-19 -12 -24 -19 -14 -19 9 0 22 7 29 15 17 20 31 19 24
-2 -5 -15 -4 -15 4 -3 11 14 7 31 -6 29 -4 0 -20 -9 -37 -20z"/>
<path d="M1550 2190 c0 -6 7 -10 15 -10 8 0 15 2 15 4 0 2 -7 6 -15 10 -8 3
-15 1 -15 -4z"/>
<path d="M1520 2165 c-7 -8 -17 -12 -23 -8 -6 4 -7 1 -3 -6 6 -9 12 -9 25 3
10 9 21 13 26 9 4 -5 5 -2 1 5 -9 15 -11 15 -26 -3z"/>
<path d="M1585 2169 c-4 -6 -5 -12 -2 -15 2 -3 7 2 10 11 7 17 1 20 -8 4z"/>
<path d="M8214 2159 c-4 -7 -3 -9 4 -5 5 3 13 0 15 -6 4 -9 6 -10 6 -1 1 17
-16 25 -25 12z"/>
<path d="M1600 2152 c0 -23 2 -27 12 -24 6 2 8 -4 5 -13 -4 -8 -2 -15 3 -15 6
0 10 6 10 13 -1 16 -30 55 -30 39z"/>
<path d="M8273 2141 c0 -11 5 -18 9 -15 4 3 5 11 1 19 -7 21 -12 19 -10 -4z"/>
<path d="M8200 2124 c-11 -12 -11 -17 0 -27 10 -9 11 -9 6 1 -4 6 -4 17 0 24
5 8 10 6 15 -8 6 -16 8 -16 8 -2 1 24 -14 31 -29 12z"/>
<path d="M1538 2118 c14 -17 52 -21 52 -5 0 5 -7 6 -16 3 -9 -4 -24 -1 -33 6
-14 11 -14 11 -3 -4z"/>
<path d="M8150 2100 c0 -5 7 -10 16 -10 8 0 13 -4 9 -9 -3 -5 -1 -12 4 -15 5
-4 8 1 7 10 -3 19 -36 41 -36 24z"/>
<path d="M8266 2088 c3 -5 10 -6 15 -3 13 9 11 12 -6 12 -8 0 -12 -4 -9 -9z"/>
<path d="M1569 2073 c-13 -16 -12 -17 4 -4 9 7 17 15 17 17 0 8 -8 3 -21 -13z"/>
<path d="M1628 2083 c6 -2 18 -2 25 0 6 3 1 5 -13 5 -14 0 -19 -2 -12 -5z"/>
<path d="M8210 2080 c-9 -6 -10 -10 -3 -10 6 0 15 5 18 10 8 12 4 12 -15 0z"/>
<path d="M1670 2072 c0 -5 7 -13 16 -16 8 -3 13 -10 10 -15 -4 -5 4 -6 16 -3
19 5 20 7 5 10 -10 2 -14 8 -11 15 4 7 4 9 -1 5 -4 -4 -14 -3 -22 3 -8 7 -13
8 -13 1z"/>
<path d="M8102 2058 c-7 -9 -5 -17 6 -28 14 -13 15 -12 9 5 -5 11 -3 22 5 27
8 5 9 8 2 8 -6 0 -16 -6 -22 -12z"/>
<path d="M1647 2054 c7 -3 9 -13 6 -22 -4 -14 -3 -14 5 -2 12 16 7 30 -11 29
-9 0 -9 -2 0 -5z"/>
<path d="M8139 2058 c0 -2 -2 -14 -5 -28 -3 -18 -2 -21 5 -10 5 8 8 17 5 21
-2 4 4 10 13 12 17 4 17 5 1 6 -10 0 -18 0 -19 -1z"/>
<path d="M8230 2046 c4 -4 16 -4 26 2 16 9 14 10 -8 9 -15 -1 -23 -6 -18 -11z"/>
<path d="M1615 2039 c-4 -6 -5 -12 -2 -15 2 -3 7 2 10 11 7 17 1 20 -8 4z"/>
<path d="M1566 2032 c-3 -5 1 -9 9 -9 8 0 12 4 9 9 -3 4 -7 8 -9 8 -2 0 -6 -4
-9 -8z"/>
<path d="M1725 2030 c-16 -7 -17 -9 -3 -9 9 -1 20 4 23 9 7 11 7 11 -20 0z"/>
<path d="M8075 2021 c-3 -5 -1 -12 5 -16 5 -3 10 -3 10 1 0 3 9 -4 21 -17 20
-23 20 -23 -1 9 -23 35 -26 37 -35 23z"/>
<path d="M1660 2010 c-11 -8 -7 -9 14 -4 22 5 27 4 21 -6 -5 -9 -4 -11 4 -6
13 9 5 26 -12 26 -7 0 -19 -5 -27 -10z"/>
<path d="M1747 2006 c-4 -10 -1 -13 8 -9 8 3 12 9 9 14 -7 12 -11 11 -17 -5z"/>
<path d="M8150 2012 c0 -5 7 -9 15 -9 8 0 12 4 9 9 -3 4 -9 8 -15 8 -5 0 -9
-4 -9 -8z"/>
<path d="M8233 1995 c0 -8 4 -12 9 -9 5 3 6 10 3 15 -9 13 -12 11 -12 -6z"/>
<path d="M8040 1984 c0 -9 -5 -12 -12 -8 -7 4 -4 -2 6 -14 11 -12 24 -22 30
-22 6 0 4 5 -6 10 -10 6 -14 18 -11 30 3 11 3 20 -1 20 -3 0 -6 -7 -6 -16z"/>
<path d="M8063 1982 c1 -12 6 -18 15 -15 7 3 10 9 5 12 -4 3 -11 10 -15 15 -4
4 -6 -1 -5 -12z"/>
<path d="M1707 1968 c2 -5 10 -8 18 -8 8 0 16 3 18 8 3 4 -5 7 -18 7 -13 0
-21 -3 -18 -7z"/>
<path d="M1783 1962 c-9 -6 -7 -11 7 -19 15 -10 21 -9 32 5 12 15 11 16 -4 4
-10 -8 -19 -9 -22 -3 -3 5 0 12 6 14 7 3 9 6 3 6 -5 0 -15 -3 -22 -7z"/>
<path d="M8090 1960 c-9 -6 -10 -10 -3 -10 6 0 15 5 18 10 8 12 4 12 -15 0z"/>
<path d="M1740 1950 c-9 -6 -10 -10 -3 -10 6 0 15 5 18 10 8 12 4 12 -15 0z"/>
<path d="M8116 1943 c-6 -14 -5 -15 5 -6 7 7 10 15 7 18 -3 3 -9 -2 -12 -12z"/>
<path d="M1760 1936 c0 -2 7 -7 16 -10 8 -3 12 -2 9 4 -6 10 -25 14 -25 6z"/>
<path d="M1831 1933 c-1 -18 13 -23 29 -11 12 8 12 9 -2 5 -9 -3 -19 -1 -22 6
-3 9 -5 9 -5 0z"/>
<path d="M8032 1935 c4 -4 0 -14 -10 -21 -9 -7 -15 -14 -12 -17 3 -2 13 4 23
13 15 14 16 20 5 26 -7 4 -10 4 -6 -1z"/>
<path d="M1729 1913 c-13 -16 -12 -17 4 -4 9 7 17 15 17 17 0 8 -8 3 -21 -13z"/>
<path d="M1806 1905 c4 -8 8 -15 10 -15 2 0 4 7 4 15 0 8 -4 15 -10 15 -5 0
-7 -7 -4 -15z"/>
<path d="M8073 1895 c0 -8 4 -12 9 -9 5 3 6 10 3 15 -9 13 -12 11 -12 -6z"/>
<path d="M1832 1888 c2 -6 10 -13 16 -14 7 -1 8 0 2 3 -5 2 -8 9 -4 14 3 5 0
9 -6 9 -7 0 -10 -5 -8 -12z"/>
<path d="M7990 1891 c0 -6 4 -13 10 -16 6 -3 7 1 4 9 -7 18 -14 21 -14 7z"/>
<path d="M1785 1870 c-3 -6 1 -7 9 -4 18 7 21 14 7 14 -6 0 -13 -4 -16 -10z"/>
<path d="M7903 1852 c-14 -9 -11 -44 4 -49 6 -2 14 1 18 6 3 6 0 8 -9 5 -10
-4 -13 0 -11 13 2 10 4 20 4 23 1 3 6 -2 11 -10 6 -9 10 -10 10 -3 0 16 -13
23 -27 15z"/>
<path d="M8026 1848 c3 -5 10 -6 15 -3 13 9 11 12 -6 12 -8 0 -12 -4 -9 -9z"/>
<path d="M7990 1829 c0 -5 5 -7 10 -4 6 3 10 8 10 11 0 2 -4 4 -10 4 -5 0 -10
-5 -10 -11z"/>
<path d="M1870 1804 c6 -6 8 -13 5 -16 -3 -2 2 -5 10 -5 12 0 12 3 2 16 -10
12 -9 14 6 8 10 -4 16 -3 12 2 -3 6 -14 9 -25 8 -13 -1 -16 -5 -10 -13z"/>
<path d="M7933 1798 c-15 -20 -25 -38 -20 -38 3 0 12 11 21 25 17 26 16 35 -1
13z"/>
<path d="M7973 1782 c-1 -22 0 -24 9 -8 6 10 6 22 2 26 -5 5 -10 -3 -11 -18z"/>
<path d="M1915 1791 c-3 -5 0 -13 6 -17 7 -4 9 -3 5 4 -3 5 0 13 6 15 9 4 10
6 1 6 -6 1 -14 -3 -18 -8z"/>
<path d="M7820 1785 c-7 -9 -10 -18 -7 -22 4 -3 9 2 13 11 3 9 10 13 15 10 5
-3 9 0 9 5 0 16 -16 13 -30 -4z"/>
<path d="M7870 1790 c-13 -8 -12 -10 3 -10 9 0 17 5 17 10 0 12 -1 12 -20 0z"/>
<path d="M1992 1784 c20 -45 33 -64 41 -64 5 0 5 6 -2 13 -6 8 -9 16 -8 18 2
2 -5 12 -16 23 -11 10 -18 15 -15 10z"/>
<path d="M7787 1749 c4 -13 8 -18 11 -10 2 7 -1 18 -6 23 -8 8 -9 4 -5 -13z"/>
<path d="M7850 1761 c0 -7 -4 -9 -10 -6 -5 3 -10 1 -10 -4 0 -6 4 -11 9 -11
13 0 25 20 17 27 -3 4 -6 1 -6 -6z"/>
<path d="M1950 1748 c0 -3 9 -6 20 -5 11 1 20 5 20 9 0 3 -9 6 -20 5 -11 -1
-20 -5 -20 -9z"/>
<path d="M2040 1750 c0 -5 5 -10 10 -10 6 0 10 5 10 10 0 6 -4 10 -10 10 -5 0
-10 -4 -10 -10z"/>
<path d="M7750 1736 c0 -3 9 -10 20 -16 11 -6 20 -8 20 -6 0 3 -9 10 -20 16
-11 6 -20 8 -20 6z"/>
<path d="M7814 1732 c3 -5 0 -13 -6 -15 -9 -4 -10 -6 -1 -6 17 -1 25 16 12 25
-7 4 -9 3 -5 -4z"/>
<path d="M7856 1731 c-3 -5 1 -14 9 -21 8 -7 12 -17 8 -23 -4 -6 -1 -7 6 -3 9
6 9 12 -3 25 -9 10 -13 21 -9 24 3 4 4 7 0 7 -3 0 -8 -4 -11 -9z"/>
<path d="M7930 1730 c0 -5 5 -10 11 -10 5 0 7 5 4 10 -3 6 -8 10 -11 10 -2 0
-4 -4 -4 -10z"/>
<path d="M1935 1721 c-3 -5 -2 -12 3 -15 5 -3 9 1 9 9 0 17 -3 19 -12 6z"/>
<path d="M1981 1708 c-13 -20 -12 -22 1 -11 8 7 17 11 20 8 2 -3 5 2 5 10 0
21 -10 19 -26 -7z"/>
<path d="M2061 1708 c16 -31 16 -31 23 -13 3 9 2 13 -4 10 -6 -3 -10 1 -10 9
0 9 -5 16 -10 16 -7 0 -7 -8 1 -22z"/>
<path d="M2100 1710 c0 -5 5 -10 11 -10 5 0 7 5 4 10 -3 6 -8 10 -11 10 -2 0
-4 -4 -4 -10z"/>
<path d="M7738 1707 c6 -7 9 -24 6 -38 -2 -13 -1 -17 2 -9 4 8 11 23 16 34 7
13 7 16 -1 12 -6 -4 -11 -2 -11 3 0 6 -5 11 -11 11 -8 0 -8 -4 -1 -13z"/>
<path d="M2020 1696 c0 -2 9 -6 20 -9 11 -3 18 -1 14 4 -5 9 -34 13 -34 5z"/>
<path d="M7775 1690 c-3 -5 0 -12 6 -16 8 -5 9 -3 4 6 -6 10 -4 12 8 7 9 -3
18 -3 21 1 3 4 -4 8 -14 9 -11 1 -22 -2 -25 -7z"/>
<path d="M2086 1673 c-8 -20 9 -40 19 -22 6 8 4 10 -5 4 -9 -5 -10 -2 -5 14 8
25 0 29 -9 4z"/>
<path d="M7839 1688 c-5 -18 -6 -38 -1 -34 7 8 12 36 6 36 -2 0 -4 -1 -5 -2z"/>
<path d="M2000 1630 c-9 -6 -10 -10 -3 -10 6 0 15 5 18 10 8 12 4 12 -15 0z"/>
<path d="M2110 1635 c0 -5 5 -17 10 -25 5 -8 10 -10 10 -5 0 6 -5 17 -10 25
-5 8 -10 11 -10 5z"/>
<path d="M2156 1603 c-6 -14 -5 -15 5 -6 7 7 10 15 7 18 -3 3 -9 -2 -12 -12z"/>
<path d="M2180 1589 c0 -5 5 -7 10 -4 6 3 10 8 10 11 0 2 -4 4 -10 4 -5 0 -10
-5 -10 -11z"/>
<path d="M2243 1584 c-15 -16 -16 -24 -4 -24 8 0 24 30 19 35 -2 2 -9 -3 -15
-11z"/>
<path d="M2115 1581 c-3 -5 -2 -12 3 -15 5 -3 9 1 9 9 0 17 -3 19 -12 6z"/>
<path d="M2150 1571 c0 -6 4 -12 8 -15 5 -3 9 1 9 9 0 8 -4 15 -9 15 -4 0 -8
-4 -8 -9z"/>
<path d="M2260 1560 c-7 -14 -7 -20 0 -20 5 0 10 7 10 16 0 8 5 12 10 9 6 -3
10 -1 10 4 0 18 -19 12 -30 -9z"/>
<path d="M2193 1542 c-8 -14 -8 -19 1 -19 7 0 13 9 13 19 1 10 1 18 0 18 -1 0
-7 -8 -14 -18z"/>
<path d="M2136 1537 c3 -10 9 -15 12 -12 3 3 0 11 -7 18 -10 9 -11 8 -5 -6z"/>
<path d="M2272 1534 c-7 -8 -8 -14 -3 -14 10 0 25 19 20 25 -2 1 -10 -3 -17
-11z"/>
<path d="M2228 1523 c7 -3 16 -2 19 1 4 3 -2 6 -13 5 -11 0 -14 -3 -6 -6z"/>
<path d="M2280 1510 c-8 -5 -10 -10 -5 -10 6 0 17 5 25 10 8 5 11 10 5 10 -5
0 -17 -5 -25 -10z"/>
<path d="M2361 1494 c-23 -21 -25 -22 -37 -6 -7 9 -14 15 -17 12 -2 -3 3 -12
12 -22 15 -15 18 -15 46 7 16 13 27 26 25 28 -3 3 -16 -6 -29 -19z"/>
<path d="M2386 1485 c-11 -8 -16 -21 -12 -30 5 -13 9 -13 25 -3 11 7 18 14 16
17 -3 2 -11 -2 -20 -9 -17 -14 -21 0 -4 17 6 6 18 9 27 6 10 -4 13 -2 8 5 -9
15 -17 15 -40 -3z"/>
<path d="M2281 1466 c-9 -11 -9 -16 0 -22 7 -4 9 -3 5 4 -3 6 2 15 11 21 10 6
13 11 7 11 -6 0 -17 -6 -23 -14z"/>
<path d="M2437 1473 c-3 -4 6 -16 19 -26 29 -22 31 -18 5 12 -11 12 -21 18
-24 14z"/>
<path d="M2355 1438 c4 -13 11 -27 16 -33 5 -5 4 5 -2 23 -12 36 -24 44 -14
10z"/>
<path d="M2413 1435 c0 -8 4 -15 9 -15 4 0 8 7 8 15 0 8 -4 15 -8 15 -5 0 -9
-7 -9 -15z"/>
<path d="M2496 1435 c4 -8 11 -15 16 -15 6 0 5 6 -2 15 -7 8 -14 15 -16 15 -2
0 -1 -7 2 -15z"/>
<path d="M2440 1430 c0 -5 5 -10 11 -10 5 0 7 5 4 10 -3 6 -8 10 -11 10 -2 0
-4 -4 -4 -10z"/>
<path d="M2335 1421 c-3 -5 -2 -12 3 -15 5 -3 9 1 9 9 0 17 -3 19 -12 6z"/>
<path d="M2470 1408 c0 -6 3 -8 7 -5 3 4 12 -1 18 -10 11 -15 17 -15 39 -5 32
14 33 7 4 -19 l-23 -20 22 10 c32 16 38 31 18 49 -10 10 -14 11 -10 3 6 -10 2
-12 -16 -6 -19 5 -21 4 -9 -4 13 -9 13 -11 -1 -11 -9 0 -19 7 -23 15 -6 18
-26 20 -26 3z"/>
<path d="M2398 1403 c7 -3 16 -2 19 1 4 3 -2 6 -13 5 -11 0 -14 -3 -6 -6z"/>
<path d="M2437 1399 c7 -7 15 -10 18 -7 3 3 -2 9 -12 12 -14 6 -15 5 -6 -5z"/>
<path d="M2355 1379 c-4 -6 -5 -12 -2 -15 2 -3 7 2 10 11 7 17 1 20 -8 4z"/>
<path d="M2473 1375 c0 -8 4 -15 9 -15 4 0 8 4 8 9 0 6 -4 12 -8 15 -5 3 -9
-1 -9 -9z"/>
<path d="M2486 1347 c-16 -12 -16 -13 2 -13 10 0 19 6 19 13 0 7 -1 13 -2 13
-1 0 -9 -6 -19 -13z"/>
<path d="M2511 1317 c-13 -21 -12 -21 5 -5 10 10 16 20 13 22 -3 3 -11 -5 -18
-17z"/>
<path d="M2565 1330 c-6 -9 -4 -11 5 -5 10 6 12 4 7 -9 -4 -9 -3 -15 2 -11 5
3 12 -1 14 -7 3 -7 6 -8 6 -2 1 5 -5 18 -12 29 -11 14 -16 15 -22 5z"/>
<path d="M2630 1300 c0 -6 7 -10 15 -10 8 0 15 2 15 4 0 2 -7 6 -15 10 -8 3
-15 1 -15 -4z"/>
<path d="M2554 1276 c1 -8 5 -18 8 -22 4 -3 5 1 4 10 -1 8 -5 18 -8 22 -4 3
-5 -1 -4 -10z"/>
<path d="M2669 1268 c-5 -21 -3 -26 12 -23 9 2 20 -3 23 -11 6 -16 26 -19 26
-3 0 5 -4 8 -9 5 -5 -3 -12 1 -15 10 -3 8 -10 13 -15 9 -5 -3 -11 5 -13 17 -3
22 -4 21 -9 -4z"/>
<path d="M2702 1276 c7 -8 15 -12 17 -11 5 6 -10 25 -20 25 -5 0 -4 -6 3 -14z"/>
<path d="M2610 1270 c0 -5 5 -10 10 -10 6 0 10 5 10 10 0 6 -4 10 -10 10 -5 0
-10 -4 -10 -10z"/>
<path d="M2780 1247 c0 -5 7 -7 15 -3 8 3 21 -1 29 -9 22 -22 32 -18 12 4 -18
20 -56 25 -56 8z"/>
<path d="M2609 1233 c-13 -16 -12 -17 4 -4 9 7 17 15 17 17 0 8 -8 3 -21 -13z"/>
<path d="M2886 1205 c-3 -10 0 -12 11 -8 10 4 14 2 10 -4 -4 -6 4 -10 19 -10
13 0 24 0 22 1 -2 1 -15 10 -30 19 -22 14 -27 14 -32 2z"/>
<path d="M2761 1202 c-1 -8 -6 -10 -13 -6 -10 5 -10 4 -1 -6 15 -16 28 -8 20
12 -4 11 -6 11 -6 0z"/>
<path d="M2790 1204 c0 -5 6 -18 13 -29 12 -15 15 -16 22 -4 5 8 4 10 0 6 -5
-4 -15 3 -22 15 -7 13 -12 18 -13 12z"/>
<path d="M2815 1200 c3 -5 8 -10 11 -10 2 0 4 5 4 10 0 6 -5 10 -11 10 -5 0
-7 -4 -4 -10z"/>
<path d="M2846 1195 c-3 -8 -1 -15 3 -15 5 0 11 7 15 15 3 8 1 15 -3 15 -5 0
-11 -7 -15 -15z"/>
<path d="M2695 1170 c3 -5 8 -10 11 -10 2 0 4 5 4 10 0 6 -5 10 -11 10 -5 0
-7 -4 -4 -10z"/>
<path d="M2870 1170 c0 -6 4 -9 9 -5 5 3 12 -5 14 -17 5 -22 5 -21 4 1 -2 24
-27 44 -27 21z"/>
<path d="M2938 1150 c15 -10 29 -15 32 -13 2 2 -2 8 -9 12 -11 7 -11 9 0 13 8
3 -1 5 -18 5 l-33 0 28 -17z"/>
<path d="M2830 1152 c0 -5 7 -9 15 -9 8 0 15 4 15 9 0 4 -7 8 -15 8 -8 0 -15
-4 -15 -8z"/>
<path d="M2870 1135 c0 -5 5 -17 10 -25 5 -8 10 -10 10 -5 0 6 -5 17 -10 25
-5 8 -10 11 -10 5z"/>
<path d="M2910 1130 c0 -5 7 -7 15 -4 10 4 14 1 12 -7 -2 -8 -2 -11 0 -6 3 4
10 4 16 0 7 -4 6 1 -2 10 -15 18 -41 23 -41 7z"/>
<path d="M3063 1127 c0 -7 -4 -21 -9 -31 -5 -14 -4 -17 4 -12 7 4 12 14 12 22
0 21 17 17 34 -8 9 -12 16 -18 16 -13 0 6 7 2 14 -8 13 -17 14 -16 19 2 3 15
1 18 -11 14 -11 -5 -13 -3 -7 7 6 9 4 11 -4 6 -7 -5 -20 -1 -29 6 -27 24 -39
28 -39 15z"/>
<path d="M3009 1113 c-13 -16 -12 -17 3 -5 9 8 22 11 28 7 5 -3 10 -1 10 4 0
17 -26 13 -41 -6z"/>
<path d="M2790 1111 c0 -6 4 -13 10 -16 6 -3 7 1 4 9 -7 18 -14 21 -14 7z"/>
<path d="M6910 1100 c0 -5 5 -10 11 -10 5 0 7 5 4 10 -3 6 -8 10 -11 10 -2 0
-4 -4 -4 -10z"/>
<path d="M2910 1091 c0 -6 4 -13 10 -16 6 -3 7 1 4 9 -7 18 -14 21 -14 7z"/>
<path d="M3019 1098 c-4 -15 -6 -50 -3 -41 3 7 5 15 4 19 -1 4 4 11 12 15 10
7 10 9 1 9 -7 0 -13 -1 -14 -2z"/>
<path d="M3086 1086 c5 -13 4 -17 -4 -12 -8 5 -10 2 -5 -10 6 -15 7 -15 16 1
6 11 5 21 -3 28 -8 9 -9 7 -4 -7z"/>
<path d="M2986 1073 c-6 -14 -5 -15 5 -6 7 7 10 15 7 18 -3 3 -9 -2 -12 -12z"/>
<path d="M3160 1069 c0 -7 -8 -18 -17 -26 -16 -13 -16 -13 5 -3 19 9 32 40 17
40 -3 0 -5 -5 -5 -11z"/>
<path d="M3180 1069 c0 -5 5 -7 10 -4 6 3 10 8 10 11 0 2 -4 4 -10 4 -5 0 -10
-5 -10 -11z"/>
<path d="M3035 1060 c-3 -5 -1 -10 4 -10 6 0 11 5 11 10 0 6 -2 10 -4 10 -3 0
-8 -4 -11 -10z"/>
<path d="M3110 1060 c0 -5 5 -10 10 -10 6 0 10 5 10 10 0 6 -4 10 -10 10 -5 0
-10 -4 -10 -10z"/>
<path d="M6587 1063 c-13 -12 -7 -21 17 -25 17 -3 23 -1 19 8 -2 7 -12 10 -20
7 -11 -4 -14 -2 -9 5 8 13 3 16 -7 5z"/>
<path d="M2890 1055 c0 -7 30 -13 34 -7 3 4 -4 9 -15 9 -10 1 -19 0 -19 -2z"/>
<path d="M2967 1049 c7 -7 15 -10 18 -7 3 3 -2 9 -12 12 -14 6 -15 5 -6 -5z"/>
<path d="M6680 1045 c-7 -8 -9 -15 -4 -15 4 0 0 -6 -9 -12 -13 -10 -14 -17 -6
-28 9 -13 10 -13 6 2 -4 9 1 19 10 22 9 4 13 9 10 13 -4 3 1 12 11 19 9 7 12
14 6 14 -6 0 -17 -7 -24 -15z"/>
<path d="M6900 1050 c0 -5 7 -7 15 -4 8 4 15 8 15 10 0 2 -7 4 -15 4 -8 0 -15
-4 -15 -10z"/>
<path d="M6715 1040 c-3 -5 -1 -10 4 -10 6 0 11 5 11 10 0 6 -2 10 -4 10 -3 0
-8 -4 -11 -10z"/>
<path d="M6811 1034 c0 -11 3 -14 6 -6 3 7 2 16 -1 19 -3 4 -6 -2 -5 -13z"/>
<path d="M6881 1043 c-1 -6 -4 -20 -7 -30 -5 -17 -5 -17 6 0 6 10 9 23 6 30
-3 9 -5 9 -5 0z"/>
<path d="M3016 1030 c8 -7 94 -7 94 0 0 4 -22 6 -49 6 -27 -1 -47 -3 -45 -6z"/>
<path d="M3222 1020 c7 -11 17 -19 23 -17 14 5 19 37 6 37 -6 0 -8 -8 -5 -17
5 -17 5 -17 -9 0 -20 23 -30 22 -15 -3z"/>
<path d="M3273 1025 c0 -8 4 -15 9 -15 4 0 8 7 8 15 0 8 -4 15 -8 15 -5 0 -9
-7 -9 -15z"/>
<path d="M6747 1029 c7 -7 15 -10 18 -7 3 3 -2 9 -12 12 -14 6 -15 5 -6 -5z"/>
<path d="M6920 1026 c0 -20 17 -29 26 -15 5 8 3 9 -6 4 -10 -6 -12 -4 -7 8 3
10 2 17 -3 17 -6 0 -10 -6 -10 -14z"/>
<path d="M6631 1021 c-8 -5 -16 -20 -17 -33 -2 -13 0 -17 2 -11 3 7 5 15 4 19
-1 3 7 12 17 20 20 15 16 19 -6 5z"/>
<path d="M6826 1013 c-6 -14 -5 -15 5 -6 7 7 10 15 7 18 -3 3 -9 -2 -12 -12z"/>
<path d="M6695 1010 c-3 -6 1 -7 9 -4 18 7 21 14 7 14 -6 0 -13 -4 -16 -10z"/>
<path d="M6777 1013 c-9 -8 12 -33 27 -33 6 0 3 5 -7 11 -9 6 -15 14 -12 20 7
10 2 12 -8 2z"/>
<path d="M6899 1018 c0 -2 -2 -13 -3 -25 -2 -16 1 -20 9 -13 7 5 14 9 16 7 2
-1 -1 3 -8 9 -7 6 -10 14 -6 17 3 4 3 7 0 7 -4 0 -7 -1 -8 -2z"/>
<path d="M6523 1002 c-8 -5 -9 -13 -3 -22 8 -13 10 -13 10 2 0 9 6 19 13 21 6
3 8 6 2 6 -5 0 -15 -3 -22 -7z"/>
<path d="M6949 993 c-13 -16 -12 -17 4 -4 9 7 17 15 17 17 0 8 -8 3 -21 -13z"/>
<path d="M7010 995 c0 -8 4 -15 10 -15 5 0 7 7 4 15 -4 8 -8 15 -10 15 -2 0
-4 -7 -4 -15z"/>
<path d="M7048 992 c9 -10 19 -14 21 -9 2 5 -3 13 -10 18 -24 15 -30 10 -11
-9z"/>
<path d="M3130 989 c0 -5 5 -7 10 -4 6 3 10 8 10 11 0 2 -4 4 -10 4 -5 0 -10
-5 -10 -11z"/>
<path d="M3268 993 c7 -3 16 -2 19 1 4 3 -2 6 -13 5 -11 0 -14 -3 -6 -6z"/>
<path d="M6699 983 c-13 -16 -12 -17 4 -4 9 7 17 15 17 17 0 8 -8 3 -21 -13z"/>
<path d="M3241 983 c-1 -17 16 -25 25 -12 4 7 3 9 -4 5 -5 -3 -13 0 -15 6 -4
9 -6 10 -6 1z"/>
<path d="M6550 980 c0 -5 7 -7 15 -4 8 4 15 8 15 10 0 2 -7 4 -15 4 -8 0 -15
-4 -15 -10z"/>
<path d="M3289 974 c6 -3 8 -11 5 -19 -3 -7 -1 -15 4 -19 5 -3 8 5 7 16 -1 12
-7 23 -14 24 -6 1 -7 0 -2 -2z"/>
<path d="M3456 963 c-7 -18 4 -44 15 -37 6 3 8 -6 5 -20 -3 -14 -1 -26 4 -26
14 0 6 50 -10 60 -8 5 -11 13 -6 17 4 4 16 -2 25 -14 12 -14 22 -18 28 -12 6
6 14 4 23 -6 12 -14 15 -14 33 2 15 14 19 15 15 3 -2 -8 -15 -20 -28 -27 -13
-6 -25 -19 -26 -27 -1 -9 2 -14 7 -10 5 3 7 10 4 15 -4 5 -1 9 5 9 6 0 15 -10
21 -22 9 -21 9 -21 4 4 -4 20 1 31 23 48 15 12 22 19 15 16 -6 -4 -15 -1 -18
4 -5 8 -14 5 -28 -7 -19 -16 -20 -16 -14 -1 3 10 1 20 -5 24 -7 4 -8 3 -4 -4
11 -18 -5 -14 -28 6 -20 16 -20 16 -7 0 7 -10 9 -18 3 -18 -12 0 -34 25 -27
32 3 2 -2 5 -10 5 -8 0 -16 -6 -19 -14z"/>
<path d="M6490 969 c0 -5 -4 -7 -10 -4 -5 3 -10 1 -10 -5 0 -6 -4 -8 -10 -5
-5 3 -10 1 -10 -4 0 -16 15 -13 41 9 13 10 18 19 12 20 -7 0 -13 -5 -13 -11z"/>
<path d="M7030 970 c-13 -8 -12 -10 3 -10 9 0 17 5 17 10 0 12 -1 12 -20 0z"/>
<path d="M7094 961 c20 -22 26 -25 26 -13 0 4 -10 13 -22 21 -23 14 -23 14 -4
-8z"/>
<path d="M3170 966 c0 -2 8 -10 18 -17 15 -13 16 -12 3 4 -13 16 -21 21 -21
13z"/>
<path d="M6655 961 c-3 -5 -2 -12 3 -15 5 -3 9 1 9 9 0 17 -3 19 -12 6z"/>
<path d="M6937 963 c-10 -9 -9 -23 1 -23 5 0 9 7 9 15 0 17 -1 18 -10 8z"/>
<path d="M3320 950 c0 -5 5 -10 10 -10 6 0 10 5 10 10 0 6 -4 10 -10 10 -5 0
-10 -4 -10 -10z"/>
<path d="M3401 943 c-5 -10 -12 -17 -16 -15 -3 1 -13 -4 -21 -13 -9 -8 -11
-15 -4 -15 6 0 13 7 16 15 4 8 10 12 15 9 5 -3 12 2 15 10 8 22 21 20 29 -5 4
-11 9 -18 12 -16 7 7 -16 47 -27 47 -5 0 -13 -8 -19 -17z"/>
<path d="M6415 949 c-9 -14 0 -22 28 -26 17 -2 19 -1 7 6 -8 5 -18 7 -22 5 -4
-3 -8 -1 -8 5 0 5 6 12 13 14 9 4 9 6 0 6 -6 1 -15 -4 -18 -10z"/>
<path d="M6530 950 c0 -5 5 -10 10 -10 6 0 10 5 10 10 0 6 -4 10 -10 10 -5 0
-10 -4 -10 -10z"/>
<path d="M6580 950 c-9 -6 -10 -10 -3 -10 6 0 15 5 18 10 8 12 4 12 -15 0z"/>
<path d="M7056 943 c-6 -14 -5 -15 5 -6 7 7 10 15 7 18 -3 3 -9 -2 -12 -12z"/>
<path d="M3355 939 c-4 -6 -5 -12 -2 -15 2 -3 7 2 10 11 7 17 1 20 -8 4z"/>
<path d="M3269 927 c6 -8 7 -18 3 -22 -4 -5 -1 -5 6 -1 10 6 10 11 1 22 -6 8
-14 14 -16 14 -3 0 0 -6 6 -13z"/>
<path d="M6479 938 c-5 -18 -6 -39 -2 -34 4 3 11 1 18 -4 8 -7 12 -5 12 5 0 7
-3 14 -6 13 -19 -2 -24 4 -11 12 10 6 11 10 3 10 -7 0 -13 -1 -14 -2z"/>
<path d="M7093 925 c0 -8 4 -12 9 -9 5 3 6 10 3 15 -9 13 -12 11 -12 -6z"/>
<path d="M7241 925 c0 -5 3 -16 8 -23 7 -11 9 -10 14 3 4 9 3 14 -2 10 -5 -3
-12 1 -14 7 -3 7 -6 9 -6 3z"/>
<path d="M3394 898 l-19 -23 25 20 c14 11 27 21 29 22 2 2 0 3 -6 3 -5 0 -18
-10 -29 -22z"/>
<path d="M3510 910 c-13 -8 -12 -10 3 -10 9 0 17 5 17 10 0 12 -1 12 -20 0z"/>
<path d="M7056 908 c3 -5 10 -6 15 -3 13 9 11 12 -6 12 -8 0 -12 -4 -9 -9z"/>
<path d="M6415 900 c-3 -6 1 -7 9 -4 18 7 21 14 7 14 -6 0 -13 -4 -16 -10z"/>
<path d="M7476 895 c3 -8 -2 -12 -13 -12 -10 1 -17 -3 -16 -10 4 -21 -26 -23
-32 -2 -4 11 -9 18 -12 16 -2 -3 0 -15 7 -26 9 -17 14 -19 31 -11 11 6 17 15
14 21 -4 5 -2 9 4 9 5 0 12 -8 14 -17 4 -17 5 -17 6 0 0 10 6 15 11 12 6 -4 8
-11 5 -16 -4 -5 -1 -9 4 -9 14 0 14 17 1 25 -15 9 -12 27 3 19 6 -4 8 -3 4 1
-13 14 -36 14 -31 0z"/>
<path d="M3315 890 c3 -5 8 -10 11 -10 2 0 4 5 4 10 0 6 -5 10 -11 10 -5 0 -7
-4 -4 -10z"/>
<path d="M3426 887 c3 -10 9 -15 12 -12 3 3 0 11 -7 18 -10 9 -11 8 -5 -6z"/>
<path d="M3590 889 c0 -5 5 -7 10 -4 6 3 10 -1 10 -9 0 -9 5 -16 10 -16 7 0 7
6 0 20 -11 21 -30 27 -30 9z"/>
<path d="M6293 887 c-3 -5 0 -14 6 -20 9 -9 11 -8 6 3 -4 11 1 16 15 17 12 1
18 -2 14 -9 -4 -7 -2 -8 5 -4 6 4 9 11 6 16 -7 11 -45 9 -52 -3z"/>
<path d="M6573 879 c-2 -23 3 -25 10 -4 4 8 3 16 -1 19 -4 3 -9 -4 -9 -15z"/>
<path d="M7196 879 c9 -10 21 -16 25 -13 13 8 11 14 -3 12 -7 -2 -12 2 -11 8
1 6 -5 11 -13 11 -12 0 -11 -4 2 -18z"/>
<path d="M3745 880 c-4 -6 -4 -14 -1 -17 3 -4 6 -1 6 5 0 7 5 12 11 12 5 0 7
-4 4 -10 -3 -5 -1 -10 5 -10 14 0 8 22 -7 27 -6 2 -14 -1 -18 -7z"/>
<path d="M6076 875 c4 -8 10 -15 15 -15 4 0 6 7 3 15 -4 8 -10 15 -15 15 -4 0
-6 -7 -3 -15z"/>
<path d="M7341 874 c0 -11 3 -14 6 -6 3 7 2 16 -1 19 -3 4 -6 -2 -5 -13z"/>
<path d="M3453 865 c0 -8 4 -12 9 -9 5 3 6 10 3 15 -9 13 -12 11 -12 -6z"/>
<path d="M3504 861 c0 -11 4 -17 8 -15 4 3 8 12 8 20 0 8 -4 14 -8 14 -4 0 -8
-9 -8 -19z"/>
<path d="M3810 860 c-8 -15 -8 -18 3 -14 8 3 14 11 14 19 0 20 -4 19 -17 -5z"/>
<path d="M6231 863 c7 -12 15 -20 18 -17 3 2 -3 12 -13 22 -17 16 -18 16 -5
-5z"/>
<path d="M6375 869 c-4 -6 -5 -12 -2 -15 2 -3 7 2 10 11 7 17 1 20 -8 4z"/>
<path d="M7320 861 c0 -6 4 -13 10 -16 6 -3 7 1 4 9 -7 18 -14 21 -14 7z"/>
<path d="M3553 838 c1 -15 6 -23 11 -18 4 4 4 16 -2 26 -9 16 -10 14 -9 -8z"/>
<path d="M3590 850 c0 -5 5 -10 11 -10 5 0 7 5 4 10 -3 6 -8 10 -11 10 -2 0
-4 -4 -4 -10z"/>
<path d="M6100 840 c-6 -11 -7 -20 -2 -20 6 0 12 9 15 20 3 11 3 20 1 20 -2 0
-8 -9 -14 -20z"/>
<path d="M6213 853 c4 -6 2 -13 -4 -15 -7 -2 -6 -8 3 -16 12 -9 14 -8 13 8 -1
11 -5 23 -10 27 -4 5 -5 3 -2 -4z"/>
<path d="M6320 850 c-9 -6 -10 -10 -3 -10 6 0 15 5 18 10 8 12 4 12 -15 0z"/>
<path d="M7355 850 c-3 -5 -1 -10 4 -10 6 0 11 5 11 10 0 6 -2 10 -4 10 -3 0
-8 -4 -11 -10z"/>
<path d="M3628 843 c6 -2 10 -8 8 -12 -3 -4 1 -8 9 -8 8 0 15 4 15 8 0 7 -26
20 -38 18 -4 0 -1 -3 6 -6z"/>
<path d="M3743 843 c-7 -2 -13 -10 -13 -15 0 -6 3 -8 7 -5 3 4 12 2 20 -4 9
-9 13 -8 13 0 0 6 -5 11 -11 11 -5 0 -7 5 -4 10 7 11 6 11 -12 3z"/>
<path d="M3779 837 c6 -8 7 -18 3 -22 -4 -5 -2 -5 5 -1 14 8 6 36 -9 36 -7 0
-6 -5 1 -13z"/>
<path d="M7628 831 c-8 -10 -22 -21 -29 -24 -12 -4 -12 -7 0 -18 8 -8 11 -9 8
-3 -4 7 0 14 7 17 8 3 20 15 26 26 13 26 9 27 -12 2z"/>
<path d="M3460 836 c0 -2 8 -10 18 -17 15 -13 16 -12 3 4 -13 16 -21 21 -21
13z"/>
<path d="M3906 824 c-14 -10 -22 -11 -27 -3 -3 6 -6 -1 -6 -16 0 -14 5 -29 13
-32 7 -2 10 -12 7 -21 -4 -15 -3 -15 6 -2 8 11 6 18 -7 28 -15 11 -15 14 -2
22 35 22 44 29 40 34 -3 2 -14 -2 -24 -10z"/>
<path d="M6156 824 c-24 -24 -19 -30 7 -8 12 10 24 20 26 21 2 2 -1 3 -7 3 -6
0 -18 -7 -26 -16z"/>
<path d="M7294 832 c4 -3 14 -7 22 -8 9 -1 13 0 10 4 -4 3 -14 7 -22 8 -9 1
-13 0 -10 -4z"/>
<path d="M7390 825 c5 -7 8 -14 5 -17 -3 -2 2 -5 10 -5 10 0 12 4 5 12 -5 7
-8 14 -5 17 3 2 -2 5 -10 5 -10 0 -12 -4 -5 -12z"/>
<path d="M7446 832 c-3 -5 1 -9 9 -9 8 0 15 4 15 9 0 4 -4 8 -9 8 -6 0 -12 -4
-15 -8z"/>
<path d="M7485 830 c3 -5 8 -10 11 -10 2 0 4 5 4 10 0 6 -5 10 -11 10 -5 0 -7
-4 -4 -10z"/>
<path d="M7510 830 c0 -5 5 -10 10 -10 6 0 10 5 10 10 0 6 -4 10 -10 10 -5 0
-10 -4 -10 -10z"/>
<path d="M3679 828 c-5 -18 -6 -38 -1 -34 7 8 12 36 6 36 -2 0 -4 -1 -5 -2z"/>
<path d="M5824 819 c-3 -6 1 -18 10 -27 10 -11 16 -12 16 -4 0 7 -4 12 -10 12
-5 0 -10 5 -10 11 0 5 5 7 10 4 6 -3 10 -1 10 4 0 14 -17 14 -26 0z"/>
<path d="M5990 810 c0 -5 5 -10 10 -10 6 0 10 5 10 10 0 6 -4 10 -10 10 -5 0
-10 -4 -10 -10z"/>
<path d="M6055 811 c-3 -5 0 -13 6 -17 8 -5 9 -3 4 6 -6 10 -4 12 9 7 10 -4
15 -3 11 3 -8 13 -22 13 -30 1z"/>
<path d="M6194 803 c16 -20 36 -23 36 -6 0 4 -3 3 -7 0 -3 -4 -16 1 -27 10
-21 18 -21 18 -2 -4z"/>
<path d="M7533 803 c-3 -7 -3 -18 0 -25 3 -7 6 -3 6 10 1 13 5 21 9 18 4 -2
14 -1 22 4 11 7 9 9 -9 7 -13 -1 -25 -7 -28 -14z"/>
<path d="M7640 805 c-11 -13 -10 -14 4 -9 9 3 16 10 16 15 0 13 -6 11 -20 -6z"/>
<path d="M3720 799 c0 -5 -4 -8 -9 -4 -5 3 -13 1 -16 -5 -4 -6 -1 -9 7 -8 7 2
12 -2 11 -8 -1 -6 5 -11 13 -11 9 0 11 4 5 10 -5 5 -7 16 -4 23 3 8 2 14 -1
14 -3 0 -6 -5 -6 -11z"/>
<path d="M3917 803 c-4 -3 -7 -11 -7 -17 0 -6 5 -5 12 2 6 6 9 14 7 17 -3 3
-9 2 -12 -2z"/>
<path d="M5917 803 c-4 -3 -7 -11 -7 -17 0 -6 5 -5 12 2 6 6 9 14 7 17 -3 3
-9 2 -12 -2z"/>
<path d="M6110 803 c5 -2 8 -9 5 -13 -3 -5 -1 -11 4 -14 5 -4 8 2 7 11 -2 9
-8 18 -15 19 -6 1 -7 0 -1 -3z"/>
<path d="M7473 793 c1 -15 5 -19 13 -13 6 6 15 6 19 2 5 -4 5 -1 1 6 -4 7 -11
10 -16 7 -4 -3 -10 1 -13 7 -3 7 -4 3 -4 -9z"/>
<path d="M9415 799 c-4 -6 -5 -12 -2 -15 2 -3 7 2 10 11 7 17 1 20 -8 4z"/>
<path d="M3790 792 c0 -4 10 -9 22 -9 18 -2 20 0 8 7 -18 12 -30 13 -30 2z"/>
<path d="M3985 788 c-3 -8 -15 -14 -25 -15 -13 -1 -18 2 -14 9 4 7 2 8 -5 4
-6 -4 -9 -12 -6 -17 8 -12 48 -5 53 9 2 7 8 12 13 12 6 0 6 -8 -1 -19 -5 -11
-6 -22 -2 -25 5 -3 9 0 9 7 0 7 2 18 4 26 5 18 -19 27 -26 9z"/>
<path d="M5589 793 c-1 -5 -1 -11 0 -15 1 -10 -7 -10 -28 1 -14 8 -17 5 -16
-12 0 -27 12 -47 28 -47 6 0 2 6 -9 14 -15 12 -17 17 -6 27 10 11 12 9 12 -5
0 -16 3 -15 20 5 10 13 19 19 20 12 0 -6 -4 -14 -9 -18 -6 -3 -9 -14 -8 -25 1
-14 5 -16 13 -9 9 7 14 6 17 -3 2 -8 3 -7 2 2 0 8 -7 14 -13 13 -15 -4 -16 9
-2 23 12 12 3 44 -11 44 -5 0 -10 -3 -10 -7z"/>
<path d="M5940 796 c0 -2 8 -10 18 -17 15 -13 16 -12 3 4 -13 16 -21 21 -21
13z"/>
<path d="M6015 791 c-3 -7 0 -8 9 -5 11 4 14 0 11 -15 -2 -12 0 -19 5 -16 11
7 6 38 -7 42 -6 2 -14 -1 -18 -6z"/>
<path d="M3653 775 c0 -8 4 -12 9 -9 5 3 6 10 3 15 -9 13 -12 11 -12 -6z"/>
<path d="M3751 783 c-1 -17 16 -25 25 -12 4 7 3 9 -4 5 -5 -3 -13 0 -15 6 -4
9 -6 10 -6 1z"/>
<path d="M4241 769 c-13 -10 -19 -19 -13 -19 5 0 15 7 22 15 7 9 15 13 18 10
11 -10 -30 -44 -46 -38 -14 5 -15 3 -4 -8 10 -11 15 -10 29 3 15 16 17 16 29
0 10 -14 14 -14 28 -3 10 8 16 9 16 3 0 -6 -8 -16 -17 -22 -11 -7 -12 -10 -4
-7 17 4 66 77 52 77 -5 0 -12 -8 -15 -18 -4 -10 -13 -19 -21 -19 -20 0 -19 14
1 25 15 8 15 10 0 15 -10 4 -15 3 -11 -3 8 -12 -1 -13 -23 -1 -12 6 -24 3 -41
-10z m52 -39 c-7 -8 -22 24 -16 34 4 5 10 1 13 -10 4 -10 6 -21 3 -24z"/>
<path d="M3839 778 c-5 -18 -6 -39 -2 -34 4 3 13 0 22 -6 9 -7 7 -2 -4 11 -18
22 -18 24 -2 18 11 -4 16 -3 12 3 -5 9 -24 14 -26 8z"/>
<path d="M5425 755 c1 -11 3 -24 4 -28 1 -11 21 2 21 14 0 6 -4 7 -10 4 -16
-10 -11 7 6 19 13 10 13 12 -4 12 -13 0 -18 -6 -17 -21z"/>
<path d="M5467 766 c-10 -25 -8 -33 3 -16 9 13 10 13 10 0 -1 -8 -12 -23 -25
-33 -23 -17 -24 -17 -37 5 -7 13 -11 30 -10 38 2 9 0 11 -5 5 -9 -12 -33 -13
-50 -2 -6 4 -15 2 -18 -4 -4 -5 -13 -8 -21 -5 -8 3 -14 1 -14 -4 0 -6 7 -10
15 -10 18 0 14 -42 -5 -48 -8 -3 -10 0 -5 8 6 9 4 11 -5 5 -10 -6 -7 -12 11
-26 13 -10 26 -15 29 -13 2 3 -2 9 -9 13 -8 5 -9 11 -3 15 6 3 9 17 7 31 -1
14 2 28 6 31 5 3 9 0 9 -7 0 -6 8 -9 20 -6 21 5 40 -12 44 -40 4 -23 5 -23 46
9 29 23 32 30 24 49 -9 20 -11 21 -17 5z"/>
<path d="M5768 753 c5 -21 7 -23 10 -9 2 10 0 22 -6 28 -6 6 -7 0 -4 -19z"/>
<path d="M5857 773 c-3 -5 0 -17 4 -28 9 -18 9 -18 5 3 -3 16 1 22 14 22 13 0
17 -6 14 -22 -4 -21 -4 -21 5 -3 11 25 5 35 -19 35 -10 0 -21 -3 -23 -7z"/>
<path d="M5932 775 c4 -4 1 -13 -8 -20 -14 -10 -14 -12 3 -25 14 -11 16 -11 6
0 -10 10 -9 16 4 25 13 10 14 13 2 20 -8 5 -11 5 -7 0z"/>
<path d="M7616 772 c-3 -5 1 -15 8 -22 8 -6 13 -20 11 -31 -2 -11 0 -17 5 -14
11 7 7 29 -9 49 -12 14 -11 16 8 16 12 0 19 -4 16 -10 -3 -6 1 -13 9 -16 9 -3
14 -10 11 -14 -3 -5 2 -7 11 -6 9 1 21 11 27 22 6 10 15 22 21 26 7 5 7 8 -2
8 -7 0 -15 -7 -18 -15 -4 -8 -10 -12 -15 -9 -5 3 -6 -2 -2 -11 5 -15 3 -15
-15 -4 -11 7 -20 18 -19 23 3 14 -39 20 -47 8z"/>
<path d="M9386 755 c-11 -8 -15 -15 -9 -15 6 0 16 7 23 15 16 19 11 19 -14 0z"/>
<path d="M3787 749 c7 -7 15 -10 18 -7 3 3 -2 9 -12 12 -14 6 -15 5 -6 -5z"/>
<path d="M3908 738 c-10 -10 -14 -18 -9 -18 10 0 36 29 30 34 -2 1 -12 -6 -21
-16z"/>
<path d="M5171 750 c-1 -9 -10 -16 -21 -17 -11 -1 -18 2 -15 7 3 6 -1 7 -9 4
-18 -7 -22 -25 -5 -21 6 1 14 -4 16 -11 3 -8 -1 -10 -11 -6 -10 4 -16 1 -16
-7 0 -7 3 -9 7 -6 3 4 11 3 17 -2 18 -14 48 -22 41 -11 -3 6 -12 10 -20 10
-23 0 -5 36 18 37 21 2 22 1 3 -13 -11 -8 -15 -14 -10 -14 6 0 15 5 22 12 6 6
15 8 19 3 5 -4 2 -10 -4 -12 -7 -3 -13 -9 -13 -14 0 -18 15 -8 32 21 9 17 22
30 29 30 9 0 9 -3 0 -14 -9 -11 -9 -16 0 -22 7 -4 9 -3 5 4 -3 6 4 18 16 28
15 11 17 14 6 11 -10 -4 -18 -1 -18 5 0 7 -5 6 -15 -2 -8 -6 -19 -9 -24 -5 -7
4 -8 0 -4 -11 5 -14 3 -15 -15 -5 -11 6 -23 16 -25 23 -4 9 -6 8 -6 -2z"/>
<path d="M5820 750 c-12 -7 -10 -9 7 -7 12 0 19 5 17 9 -6 10 -6 10 -24 -2z"/>
<path d="M5957 745 c-4 -8 -3 -16 1 -19 4 -3 9 4 9 15 2 23 -3 25 -10 4z"/>
<path d="M7556 751 c9 -9 34 -9 34 -1 0 5 -9 8 -20 7 -10 -1 -17 -3 -14 -6z"/>
<path d="M3960 746 c0 -2 7 -7 16 -10 8 -3 12 -2 9 4 -6 10 -25 14 -25 6z"/>
<path d="M4140 746 c0 -2 7 -6 15 -10 8 -3 15 -1 15 4 0 6 -7 10 -15 10 -8 0
-15 -2 -15 -4z"/>
<path d="M3735 730 c-3 -5 -1 -10 4 -10 6 0 11 5 11 10 0 6 -2 10 -4 10 -3 0
-8 -4 -11 -10z"/>
<path d="M4015 731 c-3 -5 -2 -12 3 -15 5 -3 9 1 9 9 0 17 -3 19 -12 6z"/>
<path d="M4045 729 c-4 -6 -4 -13 -1 -16 3 -4 6 -1 6 6 0 7 5 9 12 5 7 -4 8
-3 4 4 -9 15 -13 15 -21 1z"/>
<path d="M4096 727 c3 -10 9 -15 12 -12 3 3 0 11 -7 18 -10 9 -11 8 -5 -6z"/>
<path d="M4344 725 c-3 -8 -4 -20 -2 -27 3 -7 7 -1 10 15 6 29 1 36 -8 12z"/>
<path d="M6010 729 c0 -5 5 -7 10 -4 6 3 10 8 10 11 0 2 -4 4 -10 4 -5 0 -10
-5 -10 -11z"/>
<path d="M4134 715 c1 -8 6 -18 11 -22 4 -4 5 -3 2 4 -4 6 -2 13 5 15 8 3 6 6
-4 10 -10 4 -15 2 -14 -7z"/>
<path d="M5281 721 c-7 -5 -12 -13 -10 -18 2 -5 12 -1 22 9 18 19 12 24 -12 9z"/>
<path d="M5376 715 c4 -8 10 -15 15 -15 4 0 6 7 3 15 -4 8 -10 15 -15 15 -4 0
-6 -7 -3 -15z"/>
<path d="M5701 707 c-13 -21 -12 -21 5 -5 10 10 16 20 13 22 -3 3 -11 -5 -18
-17z"/>
<path d="M5834 710 c0 -13 4 -16 10 -10 7 7 7 13 0 20 -6 6 -10 3 -10 -10z"/>
<path d="M3920 710 c-9 -6 -10 -10 -3 -10 6 0 15 5 18 10 8 12 4 12 -15 0z"/>
<path d="M4075 710 c-3 -5 -1 -10 4 -10 6 0 11 5 11 10 0 6 -2 10 -4 10 -3 0
-8 -4 -11 -10z"/>
<path d="M4207 709 c7 -7 15 -10 18 -7 3 3 -2 9 -12 12 -14 6 -15 5 -6 -5z"/>
<path d="M4245 710 c-3 -6 1 -7 9 -4 18 7 21 14 7 14 -6 0 -13 -4 -16 -10z"/>
<path d="M4370 700 c9 -17 46 -24 55 -10 3 5 0 12 -6 16 -7 4 -9 3 -5 -4 4 -7
-1 -10 -14 -9 -22 1 -27 13 -7 20 6 3 2 4 -10 4 -16 -1 -19 -5 -13 -17z"/>
<path d="M4476 705 c-9 -26 -7 -32 5 -12 6 10 9 21 6 23 -2 3 -7 -2 -11 -11z"/>
<path d="M5870 706 c7 -7 13 -7 20 0 6 6 3 10 -10 10 -13 0 -16 -4 -10 -10z"/>
<path d="M4113 683 c17 -20 39 -24 53 -11 3 4 -2 5 -13 3 -10 -1 -27 5 -38 14
-20 16 -20 16 -2 -6z"/>
<path d="M4195 693 c3 -3 0 -11 -5 -18 -7 -8 -5 -12 4 -12 14 0 16 22 3 32 -4
3 -5 2 -2 -2z"/>
<path d="M4255 690 c-3 -6 1 -7 9 -4 18 7 21 14 7 14 -6 0 -13 -4 -16 -10z"/>
<path d="M4305 673 l-17 -28 23 22 c12 12 20 25 17 28 -3 3 -13 -7 -23 -22z"/>
<path d="M4822 683 c15 -15 15 -18 2 -28 -13 -9 -12 -13 8 -30 l23 -20 -18 22
c-18 21 -18 21 2 28 20 6 20 6 0 26 -10 10 -22 19 -26 19 -4 0 0 -8 9 -17z"/>
<path d="M5235 690 c3 -6 1 -10 -6 -10 -7 0 -10 -3 -6 -6 3 -3 13 -2 22 4 16
8 16 9 1 15 -10 4 -15 3 -11 -3z"/>
<path d="M5350 690 c0 -5 3 -9 8 -8 4 1 20 -4 35 -10 44 -19 46 -13 3 8 -46
23 -46 23 -46 10z"/>
<path d="M5496 691 c-3 -4 6 -6 19 -3 14 2 25 6 25 8 0 8 -39 4 -44 -5z"/>
<path d="M5576 691 c-4 -5 3 -7 14 -4 23 6 26 13 6 13 -8 0 -17 -4 -20 -9z"/>
<path d="M5719 683 c-13 -16 -12 -17 4 -4 9 7 17 15 17 17 0 8 -8 3 -21 -13z"/>
<path d="M5933 685 c0 -8 4 -12 9 -9 5 3 6 10 3 15 -9 13 -12 11 -12 -6z"/>
<path d="M4607 677 c-3 -8 1 -14 8 -14 7 0 11 6 8 14 -3 7 -6 13 -8 13 -2 0
-5 -6 -8 -13z"/>
<path d="M4681 685 c0 -5 3 -16 8 -23 7 -11 9 -10 14 3 4 9 3 14 -2 10 -5 -3
-12 1 -14 7 -3 7 -6 9 -6 3z"/>
<path d="M5615 680 c-4 -6 -10 -8 -15 -5 -4 3 -13 -2 -19 -9 -9 -10 -9 -16 -1
-21 6 -4 9 -1 8 6 -2 7 2 13 9 14 12 0 42 25 31 25 -4 0 -10 -5 -13 -10z"/>
<path d="M5650 686 c0 -2 8 -10 18 -17 15 -13 16 -12 3 4 -13 16 -21 21 -21
13z"/>
<path d="M4346 668 c3 -5 10 -6 15 -3 13 9 11 12 -6 12 -8 0 -12 -4 -9 -9z"/>
<path d="M4426 672 c-2 -4 4 -8 15 -8 10 0 19 4 19 8 0 4 -6 8 -14 8 -8 0 -17
-4 -20 -8z"/>
<path d="M4790 670 c-13 -8 -12 -10 3 -10 9 0 17 5 17 10 0 12 -1 12 -20 0z"/>
<path d="M4970 670 c0 -5 5 -10 10 -10 6 0 10 5 10 10 0 6 -4 10 -10 10 -5 0
-10 -4 -10 -10z"/>
<path d="M5120 670 c8 -5 20 -10 25 -10 6 0 3 5 -5 10 -8 5 -19 10 -25 10 -5
0 -3 -5 5 -10z"/>
<path d="M5270 672 c0 -4 10 -9 22 -9 18 -2 20 0 8 7 -18 12 -30 13 -30 2z"/>
<path d="M5746 672 c-3 -5 1 -9 9 -9 8 0 15 4 15 9 0 4 -4 8 -9 8 -6 0 -12 -4
-15 -8z"/>
<path d="M5796 668 c3 -5 10 -6 15 -3 13 9 11 12 -6 12 -8 0 -12 -4 -9 -9z"/>
<path d="M7586 668 c3 -5 10 -6 15 -3 13 9 11 12 -6 12 -8 0 -12 -4 -9 -9z"/>
<path d="M7660 675 c0 -2 6 -8 13 -14 10 -8 14 -7 14 2 0 8 -6 14 -14 14 -7 0
-13 -1 -13 -2z"/>
<path d="M7750 670 c0 -6 4 -9 9 -6 5 4 12 1 14 -4 3 -6 4 -5 3 2 -3 15 -26
23 -26 8z"/>
<path d="M4717 663 c-10 -10 -8 -23 4 -23 5 0 7 5 3 12 -5 8 -2 9 10 5 10 -4
15 -3 11 3 -7 12 -19 13 -28 3z"/>
<path d="M5075 659 c-4 -6 -5 -12 -2 -15 2 -3 7 2 10 11 7 17 1 20 -8 4z"/>
<path d="M4518 653 c7 -3 16 -2 19 1 4 3 -2 6 -13 5 -11 0 -14 -3 -6 -6z"/>
<path d="M4756 643 c-6 -14 -5 -15 5 -6 7 7 10 15 7 18 -3 3 -9 -2 -12 -12z"/>
<path d="M4895 649 c-4 -6 -5 -12 -2 -15 2 -3 7 2 10 11 7 17 1 20 -8 4z"/>
<path d="M5015 650 c6 -10 4 -12 -10 -6 -16 6 -16 4 -4 -11 7 -10 14 -19 15
-21 1 -1 4 6 7 18 3 11 0 23 -5 27 -7 4 -8 1 -3 -7z"/>
<path d="M5095 650 c-3 -6 1 -7 9 -4 18 7 21 14 7 14 -6 0 -13 -4 -16 -10z"/>
<path d="M5173 639 c-2 -23 3 -25 10 -4 4 8 3 16 -1 19 -4 3 -9 -4 -9 -15z"/>
<path d="M5353 645 c0 -8 4 -12 9 -9 4 3 8 9 8 15 0 5 -4 9 -8 9 -5 0 -9 -7
-9 -15z"/>
<path d="M7790 650 c0 -5 5 -10 11 -10 5 0 7 5 4 10 -3 6 -8 10 -11 10 -2 0
-4 -4 -4 -10z"/>
<path d="M9330 641 c-7 -15 -7 -19 5 -17 8 1 18 6 22 11 5 4 2 5 -6 0 -11 -6
-13 -4 -8 8 9 23 0 21 -13 -2z"/>
<path d="M4595 640 c-3 -6 1 -7 9 -4 18 7 21 14 7 14 -6 0 -13 -4 -16 -10z"/>
<path d="M4941 628 c-13 -21 -13 -22 2 -10 9 8 21 11 26 7 7 -3 8 0 5 9 -8 22
-17 20 -33 -6z"/>
<path d="M5151 634 c0 -11 3 -14 6 -6 3 7 2 16 -1 19 -3 4 -6 -2 -5 -13z"/>
<path d="M4673 625 c0 -8 4 -12 9 -9 4 3 8 9 8 15 0 5 -4 9 -8 9 -5 0 -9 -7
-9 -15z"/>
<path d="M5053 621 c0 -11 5 -18 9 -15 4 3 5 11 1 19 -7 21 -12 19 -10 -4z"/>
<path d="M5099 623 c-13 -16 -12 -17 4 -4 9 7 17 15 17 17 0 8 -8 3 -21 -13z"/>
<path d="M4793 615 c0 -8 4 -15 9 -15 4 0 8 4 8 9 0 6 -4 12 -8 15 -5 3 -9 -1
-9 -9z"/>
<path d="M4535 610 c3 -5 8 -10 11 -10 2 0 4 5 4 10 0 6 -5 10 -11 10 -5 0 -7
-4 -4 -10z"/>
<path d="M4876 603 c-6 -14 -5 -15 5 -6 7 7 10 15 7 18 -3 3 -9 -2 -12 -12z"/>
<path d="M5370 609 c0 -5 5 -7 10 -4 6 3 10 8 10 11 0 2 -4 4 -10 4 -5 0 -10
-5 -10 -11z"/>
<path d="M7773 600 c-1 -11 2 -20 7 -20 4 0 7 7 6 15 -3 23 -12 26 -13 5z"/>
<path d="M9375 610 c3 -5 8 -10 11 -10 2 0 4 5 4 10 0 6 -5 10 -11 10 -5 0 -7
-4 -4 -10z"/>
<path d="M7830 582 c0 -5 7 -9 15 -9 8 0 12 4 9 9 -3 4 -9 8 -15 8 -5 0 -9 -4
-9 -8z"/>
<path d="M7793 545 c0 -8 4 -12 9 -9 4 3 8 9 8 15 0 5 -4 9 -8 9 -5 0 -9 -7
-9 -15z"/>
<path d="M9355 550 c3 -5 8 -10 11 -10 2 0 4 5 4 10 0 6 -5 10 -11 10 -5 0 -7
-4 -4 -10z"/>
<path d="M7894 521 c9 -16 12 -32 8 -36 -4 -5 -1 -5 5 -1 10 6 10 14 -2 37 -9
16 -18 29 -21 29 -2 0 2 -13 10 -29z"/>
<path d="M7866 513 c-6 -14 -5 -15 5 -6 7 7 10 15 7 18 -3 3 -9 -2 -12 -12z"/>
<path d="M7796 503 c-6 -14 -5 -15 5 -6 7 7 10 15 7 18 -3 3 -9 -2 -12 -12z"/>
<path d="M7920 469 c0 -5 5 -7 10 -4 6 3 10 8 10 11 0 2 -4 4 -10 4 -5 0 -10
-5 -10 -11z"/>
<path d="M7934 445 c-4 -9 -4 -19 0 -22 3 -4 6 2 6 12 0 16 2 17 18 3 20 -18
42 -31 42 -25 0 2 -14 13 -30 26 -26 19 -31 20 -36 6z"/>
<path d="M7901 434 c0 -11 3 -14 6 -6 3 7 2 16 -1 19 -3 4 -6 -2 -5 -13z"/>
<path d="M8022 423 c-10 -4 -10 -8 0 -21 11 -13 10 -15 -5 -9 -10 4 -16 3 -12
-2 3 -6 14 -9 25 -8 10 1 16 5 14 9 -3 4 0 8 5 8 6 0 11 5 11 11 0 8 -6 7 -17
-2 -15 -12 -16 -12 -10 4 3 9 5 17 4 16 -1 0 -8 -3 -15 -6z"/>
<path d="M7846 392 l-19 -27 24 22 c12 12 21 24 18 27 -2 2 -13 -8 -23 -22z"/>
<path d="M7955 410 c6 -10 3 -12 -11 -7 -18 7 -18 6 -2 -6 10 -8 16 -17 13
-20 -3 -4 -2 -5 2 -2 12 9 12 34 1 42 -7 4 -8 1 -3 -7z"/>
<path d="M7895 400 c-3 -5 -2 -18 4 -27 7 -14 9 -12 8 10 -2 30 -3 31 -12 17z"/>
<path d="M8061 378 c-6 -10 -9 -18 -6 -18 3 0 15 8 26 18 13 13 15 19 5 19 -7
0 -18 -9 -25 -19z"/>
<path d="M8841 383 c0 -11 3 -13 6 -5 2 6 10 9 15 6 7 -4 8 -2 4 4 -11 18 -26
14 -25 -5z"/>
<path d="M8105 380 c-3 -5 0 -20 7 -32 l13 -23 24 24 c13 14 17 22 8 18 -9 -3
-18 1 -21 9 -6 16 -22 19 -31 4z m28 -15 c4 -8 2 -17 -3 -20 -6 -4 -10 -4 -10
-1 0 2 -3 11 -6 20 -3 9 -2 16 4 16 5 0 12 -7 15 -15z"/>
<path d="M8734 371 c3 -5 16 -11 28 -14 22 -6 22 -5 4 8 -22 17 -40 20 -32 6z"/>
<path d="M8794 356 c3 -16 8 -31 11 -35 3 -3 4 7 1 23 -3 16 -8 31 -11 35 -3
3 -4 -7 -1 -23z"/>
<path d="M9007 365 c3 -8 9 -12 14 -9 12 7 11 11 -5 17 -10 4 -13 1 -9 -8z"/>
<path d="M9230 371 c0 -6 4 -12 8 -15 5 -3 9 1 9 9 0 8 -4 15 -9 15 -4 0 -8
-4 -8 -9z"/>
<path d="M9260 376 c0 -2 8 -10 18 -17 15 -13 16 -12 3 4 -13 16 -21 21 -21
13z"/>
<path d="M7973 357 c0 -7 9 -14 20 -14 11 -1 18 -1 16 0 -2 2 -11 8 -20 15
-12 9 -16 9 -16 -1z"/>
<path d="M8026 355 c-9 -26 -7 -32 5 -12 6 10 9 21 6 23 -2 3 -7 -2 -11 -11z"/>
<path d="M8072 354 c-7 -8 -8 -14 -3 -14 10 0 25 19 20 25 -2 1 -10 -3 -17
-11z"/>
<path d="M8690 355 c0 -8 4 -15 10 -15 5 0 7 7 4 15 -4 8 -8 15 -10 15 -2 0
-4 -7 -4 -15z"/>
<path d="M8716 357 c3 -10 9 -15 12 -12 3 3 0 11 -7 18 -10 9 -11 8 -5 -6z"/>
<path d="M8895 360 c3 -5 8 -10 11 -10 2 0 4 5 4 10 0 6 -5 10 -11 10 -5 0 -7
-4 -4 -10z"/>
<path d="M8832 351 c-11 -6 -10 -10 4 -15 9 -3 19 -4 22 -1 3 3 0 5 -7 5 -7 0
-9 5 -6 10 7 12 4 12 -13 1z"/>
<path d="M9035 348 c-11 -7 -26 -18 -34 -26 -13 -13 -13 -16 0 -26 8 -6 13
-20 12 -31 l-3 -20 9 20 c6 14 5 23 -5 31 -13 10 -10 16 18 38 35 27 36 33 3
14z"/>
<path d="M8155 340 c-3 -5 -1 -10 4 -10 6 0 11 5 11 10 0 6 -2 10 -4 10 -3 0
-8 -4 -11 -10z"/>
<path d="M8870 346 c0 -2 6 -9 14 -15 11 -9 16 -9 22 0 4 8 3 9 -4 5 -7 -4
-12 -2 -12 3 0 6 -4 11 -10 11 -5 0 -10 -2 -10 -4z"/>
<path d="M8084 328 c-4 -7 -3 -8 4 -4 7 4 12 1 12 -8 0 -9 5 -16 11 -16 5 0 7
-5 3 -12 -4 -7 -3 -8 4 -4 9 5 7 14 -4 32 -19 28 -20 28 -30 12z"/>
<path d="M8464 321 c-11 -10 -26 -21 -34 -24 -12 -4 -11 -6 2 -6 9 -1 24 6 33
16 14 14 18 14 26 2 6 -9 4 -15 -6 -17 -8 -2 -15 -8 -15 -13 0 -6 8 -5 20 1
17 9 18 14 9 33 -7 12 -13 23 -14 24 -1 2 -10 -5 -21 -16z"/>
<path d="M8773 328 c1 -7 -3 -12 -9 -11 -6 1 -11 -5 -11 -13 0 -12 4 -11 18 2
10 9 16 21 13 25 -8 13 -14 11 -11 -3z"/>
<path d="M8576 315 c-9 -26 -7 -32 5 -12 6 10 9 21 6 23 -2 3 -7 -2 -11 -11z"/>
<path d="M8635 321 c-3 -5 0 -13 6 -17 7 -4 9 -3 5 4 -3 5 0 13 6 15 9 4 10 6
1 6 -6 1 -14 -3 -18 -8z"/>
<path d="M9037 323 c-4 -3 -7 -11 -7 -17 0 -6 5 -5 12 2 6 6 9 14 7 17 -3 3
-9 2 -12 -2z"/>
<path d="M8026 308 c3 -5 9 -7 12 -4 3 3 12 0 21 -6 13 -10 14 -10 4 2 -15 16
-46 23 -37 8z"/>
<path d="M8850 310 c0 -5 5 -10 10 -10 6 0 10 5 10 10 0 6 -4 10 -10 10 -5 0
-10 -4 -10 -10z"/>
<path d="M8930 310 c0 -5 5 -10 10 -10 6 0 10 5 10 10 0 6 -4 10 -10 10 -5 0
-10 -4 -10 -10z"/>
<path d="M8375 290 c12 -19 43 -31 51 -18 4 7 3 8 -4 4 -7 -4 -12 -2 -12 4 0
6 -4 8 -10 5 -5 -3 -10 -1 -10 4 0 6 -5 11 -11 11 -5 0 -7 -4 -4 -10z"/>
<path d="M8550 291 c0 -6 4 -13 10 -16 6 -3 7 1 4 9 -7 18 -14 21 -14 7z"/>
<path d="M8590 295 c0 -5 5 -17 10 -25 5 -8 10 -10 10 -5 0 6 -5 17 -10 25 -5
8 -10 11 -10 5z"/>
<path d="M8879 283 c-13 -16 -12 -17 4 -4 9 7 17 15 17 17 0 8 -8 3 -21 -13z"/>
<path d="M8960 296 c0 -2 7 -7 16 -10 8 -3 12 -2 9 4 -6 10 -25 14 -25 6z"/>
<path d="M9110 293 c0 -6 8 -17 18 -24 16 -13 16 -13 2 6 -8 11 -16 22 -17 24
-2 2 -3 0 -3 -6z"/>
<path d="M9150 290 c0 -6 7 -10 15 -10 8 0 15 2 15 4 0 2 -7 6 -15 10 -8 3
-15 1 -15 -4z"/>
<path d="M9195 291 c-3 -5 -2 -12 3 -15 5 -3 9 1 9 9 0 17 -3 19 -12 6z"/>
<path d="M8157 283 c-3 -5 4 -15 16 -23 21 -12 21 -12 7 6 -8 10 -15 20 -16
22 -1 2 -4 -1 -7 -5z"/>
<path d="M8190 281 c0 -6 4 -12 8 -15 5 -3 9 1 9 9 0 8 -4 15 -9 15 -4 0 -8
-4 -8 -9z"/>
<path d="M8332 270 c0 -14 2 -19 5 -12 2 6 2 18 0 25 -3 6 -5 1 -5 -13z"/>
<path d="M8353 275 c0 -8 4 -15 9 -15 4 0 8 4 8 9 0 6 -4 12 -8 15 -5 3 -9 -1
-9 -9z"/>
<path d="M8442 268 c-15 -15 -15 -28 0 -28 6 0 8 3 5 7 -4 3 -2 12 4 20 14 16
7 17 -9 1z"/>
<path d="M8513 267 c0 -7 9 -13 19 -13 10 0 18 1 18 3 0 1 -8 7 -18 12 -13 7
-19 6 -19 -2z"/>
<path d="M8695 270 c3 -5 8 -10 11 -10 2 0 4 5 4 10 0 6 -5 10 -11 10 -5 0 -7
-4 -4 -10z"/>
<path d="M8836 272 c-3 -5 1 -9 9 -9 8 0 12 4 9 9 -3 4 -7 8 -9 8 -2 0 -6 -4
-9 -8z"/>
<path d="M8954 268 c-4 -7 -4 -10 1 -6 4 4 15 2 24 -5 14 -11 14 -10 2 6 -16
20 -18 21 -27 5z"/>
<path d="M9035 271 c-6 -11 13 -26 22 -17 4 3 1 6 -6 6 -7 0 -9 5 -6 10 3 6 4
10 1 10 -3 0 -7 -4 -11 -9z"/>
<path d="M8095 261 c-3 -5 -2 -12 3 -15 5 -3 9 1 9 9 0 17 -3 19 -12 6z"/>
<path d="M8275 260 c-3 -6 1 -7 9 -4 18 7 21 14 7 14 -6 0 -13 -4 -16 -10z"/>
<path d="M8915 261 c-3 -5 -2 -12 3 -15 5 -3 9 1 9 9 0 17 -3 19 -12 6z"/>
<path d="M8238 253 c7 -3 16 -2 19 1 4 3 -2 6 -13 5 -11 0 -14 -3 -6 -6z"/>
<path d="M8313 242 c2 -12 6 -24 10 -28 3 -4 4 4 2 16 -6 30 -16 40 -12 12z"/>
<path d="M9195 240 c10 -11 20 -20 23 -20 3 0 -3 9 -13 20 -10 11 -20 20 -23
20 -3 0 3 -9 13 -20z"/>
<path d="M8210 247 c0 -2 6 -10 14 -16 11 -9 16 -9 22 1 4 7 4 10 -1 6 -4 -4
-14 -3 -22 3 -7 6 -13 9 -13 6z"/>
<path d="M9130 246 c0 -2 7 -9 15 -16 9 -7 15 -8 15 -2 0 5 -7 12 -15 16 -8 3
-15 4 -15 2z"/>
<path d="M8257 225 c-4 -8 -3 -16 1 -19 4 -3 9 4 9 15 2 23 -3 25 -10 4z"/>
<path d="M8357 222 c-14 -15 -14 -19 -3 -19 8 0 14 5 13 11 -1 6 4 10 11 9 6
-2 12 2 12 7 0 16 -15 12 -33 -8z"/>
<path d="M8455 229 c-3 -4 2 -6 10 -5 21 3 28 13 10 13 -9 0 -18 -4 -20 -8z"/>
<path d="M8505 229 c-3 -4 2 -6 10 -5 21 3 28 13 10 13 -9 0 -18 -4 -20 -8z"/>
<path d="M9230 229 c0 -5 5 -7 10 -4 6 3 10 8 10 11 0 2 -4 4 -10 4 -5 0 -10
-5 -10 -11z"/>
<path d="M9155 199 c-4 -6 -5 -12 -2 -15 2 -3 7 2 10 11 7 17 1 20 -8 4z"/>
<path d="M8310 190 c0 -5 5 -10 11 -10 5 0 7 5 4 10 -3 6 -8 10 -11 10 -2 0
-4 -4 -4 -10z"/>
</g>
</svg>
